<svg width="375" height="302" viewBox="0 0 375 302" fill="none" xmlns="http://www.w3.org/2000/svg">
<rect width="375" height="302" fill="url(#paint0_linear_272:773)"/>
<g opacity="0.08">
<path fill-rule="evenodd" clip-rule="evenodd" d="M16.7764 85.4902L34.817 93.0095V117.104L16.7275 109.916L16.7764 85.4902Z" fill="url(#paint1_linear_272:773)"/>
<path fill-rule="evenodd" clip-rule="evenodd" d="M34.8169 93.0094L53.0252 85.2941L52.9054 109.916L34.8169 117.103V93.0094Z" fill="url(#paint2_linear_272:773)"/>
<path fill-rule="evenodd" clip-rule="evenodd" d="M16.7276 85.8216C16.7276 85.8216 16.6461 84.7557 16.7276 83.2043C21.2884 81.3047 33.4839 78.8431 33.4839 78.8431C33.4839 78.8431 47.2148 81.2275 52.9065 83.3298C52.9364 85.1861 52.9065 85.9471 52.9065 85.9471L34.817 93.1747L16.7276 85.8216Z" fill="url(#paint3_linear_272:773)"/>
<path fill-rule="evenodd" clip-rule="evenodd" d="M16.7275 83.0798L33.4838 76.1006L52.7168 83.2043L34.817 90.4329L16.7275 83.0798Z" fill="url(#paint4_linear_272:773)"/>
</g>
<g opacity="0.6">
<path fill-rule="evenodd" clip-rule="evenodd" d="M232.335 111.26L244.408 118.121V140.107L232.302 133.548L232.335 111.26Z" fill="url(#paint5_linear_272:773)"/>
<path fill-rule="evenodd" clip-rule="evenodd" d="M244.408 118.121L256.594 111.081L256.514 133.548L244.408 140.107V118.121Z" fill="url(#paint6_linear_272:773)"/>
<path fill-rule="evenodd" clip-rule="evenodd" d="M232.302 111.562C232.302 111.562 232.248 110.59 232.302 109.174C235.354 107.441 243.516 105.194 243.516 105.194C243.516 105.194 252.705 107.37 256.514 109.288C256.534 110.982 256.514 111.677 256.514 111.677L244.408 118.272L232.302 111.562Z" fill="url(#paint7_linear_272:773)"/>
<path fill-rule="evenodd" clip-rule="evenodd" d="M232.302 109.06L243.516 102.692L256.387 109.174L244.408 115.77L232.302 109.06Z" fill="url(#paint8_linear_272:773)"/>
</g>
<g opacity="0.8">
<path fill-rule="evenodd" clip-rule="evenodd" d="M295.147 149.118L304.975 154.757V172.828L295.121 167.437L295.147 149.118Z" fill="url(#paint9_linear_272:773)"/>
<path fill-rule="evenodd" clip-rule="evenodd" d="M304.975 154.757L314.893 148.971L314.828 167.437L304.975 172.828V154.757Z" fill="url(#paint10_linear_272:773)"/>
<path fill-rule="evenodd" clip-rule="evenodd" d="M295.121 149.366C295.121 149.366 295.076 148.567 295.121 147.403C297.605 145.979 304.248 144.132 304.248 144.132C304.248 144.132 311.728 145.921 314.829 147.497C314.845 148.89 314.829 149.46 314.829 149.46L304.975 154.881L295.121 149.366Z" fill="url(#paint11_linear_272:773)"/>
<path fill-rule="evenodd" clip-rule="evenodd" d="M295.121 147.31L304.249 142.075L314.725 147.403L304.975 152.825L295.121 147.31Z" fill="url(#paint12_linear_272:773)"/>
</g>
<g opacity="0.1">
<path fill-rule="evenodd" clip-rule="evenodd" d="M318.304 86.5442L335.836 95.8492V125.666L318.257 116.771L318.304 86.5442Z" fill="url(#paint13_linear_272:773)"/>
<path fill-rule="evenodd" clip-rule="evenodd" d="M335.836 95.8492L353.532 86.3015L353.415 116.771L335.836 125.666V95.8492Z" fill="url(#paint14_linear_272:773)"/>
<path fill-rule="evenodd" clip-rule="evenodd" d="M318.256 86.9542C318.256 86.9542 318.177 85.6351 318.256 83.7153C322.689 81.3646 334.541 78.3184 334.541 78.3184C334.541 78.3184 347.885 81.2689 353.416 83.8706C353.445 86.1678 353.416 87.1095 353.416 87.1095L335.836 96.0537L318.256 86.9542Z" fill="url(#paint15_linear_272:773)"/>
<path fill-rule="evenodd" clip-rule="evenodd" d="M318.257 83.5612L334.541 74.9244L353.232 83.7153L335.836 92.6607L318.257 83.5612Z" fill="url(#paint16_linear_272:773)"/>
</g>
<g opacity="0.9">
<path fill-rule="evenodd" clip-rule="evenodd" d="M204.788 220.27L220.512 229.199V257.81L204.746 249.275L204.788 220.27Z" fill="url(#paint17_linear_272:773)"/>
<path fill-rule="evenodd" clip-rule="evenodd" d="M220.512 229.199L236.382 220.037L236.277 249.275L220.512 257.81V229.199Z" fill="url(#paint18_linear_272:773)"/>
<path fill-rule="evenodd" clip-rule="evenodd" d="M204.746 220.663C204.746 220.663 204.675 219.397 204.746 217.555C208.721 215.299 219.35 212.376 219.35 212.376C219.35 212.376 231.318 215.208 236.278 217.704C236.304 219.908 236.278 220.812 236.278 220.812L220.512 229.395L204.746 220.663Z" fill="url(#paint19_linear_272:773)"/>
<path fill-rule="evenodd" clip-rule="evenodd" d="M204.746 217.407L219.35 209.119L236.113 217.555L220.512 226.139L204.746 217.407Z" fill="url(#paint20_linear_272:773)"/>
</g>
<g opacity="0.2">
<path fill-rule="evenodd" clip-rule="evenodd" d="M141.506 117.976L150.654 122.393V136.548L141.482 132.326L141.506 117.976Z" fill="url(#paint21_linear_272:773)"/>
<path fill-rule="evenodd" clip-rule="evenodd" d="M150.654 122.393L159.886 117.86L159.825 132.325L150.654 136.548V122.393Z" fill="url(#paint22_linear_272:773)"/>
<path fill-rule="evenodd" clip-rule="evenodd" d="M141.482 118.17C141.482 118.17 141.44 117.544 141.482 116.633C143.794 115.516 149.978 114.07 149.978 114.07C149.978 114.07 156.94 115.471 159.826 116.706C159.841 117.797 159.826 118.244 159.826 118.244L150.654 122.49L141.482 118.17Z" fill="url(#paint23_linear_272:773)"/>
<path fill-rule="evenodd" clip-rule="evenodd" d="M141.482 116.559L149.978 112.459L159.73 116.633L150.654 120.879L141.482 116.559Z" fill="url(#paint24_linear_272:773)"/>
</g>
<g opacity="0.9">
<path fill-rule="evenodd" clip-rule="evenodd" d="M320.989 199.049L338.959 209.388V242.517L320.941 232.634L320.989 199.049Z" fill="url(#paint25_linear_272:773)"/>
<path fill-rule="evenodd" clip-rule="evenodd" d="M338.959 209.388L357.096 198.779L356.977 232.634L338.959 242.517V209.388Z" fill="url(#paint26_linear_272:773)"/>
<path fill-rule="evenodd" clip-rule="evenodd" d="M320.941 199.505C320.941 199.505 320.859 198.039 320.941 195.906C325.484 193.294 337.631 189.909 337.631 189.909C337.631 189.909 351.308 193.188 356.978 196.078C357.007 198.631 356.978 199.677 356.978 199.677L338.959 209.615L320.941 199.505Z" fill="url(#paint27_linear_272:773)"/>
<path fill-rule="evenodd" clip-rule="evenodd" d="M320.941 195.735L337.631 186.138L356.789 195.906L338.959 205.845L320.941 195.735Z" fill="url(#paint28_linear_272:773)"/>
</g>
<path fill-rule="evenodd" clip-rule="evenodd" d="M260.806 150.489C293.365 152.907 315.93 158.424 315.765 172.218C315.527 192.117 282.901 202.524 250.342 200.106C217.783 197.689 190.555 182.694 196.934 163.694C201.562 149.911 228.247 148.071 260.806 150.489Z" fill="url(#paint29_linear_272:773)"/>
<path fill-rule="evenodd" clip-rule="evenodd" d="M261.972 140.206C294.531 142.624 318.257 157.238 314.965 172.847C311.673 188.456 282.61 199.15 250.051 196.732C217.493 194.315 193.767 179.701 197.059 164.091C200.351 148.482 229.414 137.788 261.972 140.206Z" fill="url(#paint30_linear_272:773)"/>
<path fill-rule="evenodd" clip-rule="evenodd" d="M260.712 147.635C289.883 149.801 310.1 154.744 309.951 167.103C309.738 184.931 280.508 194.255 251.337 192.089C222.166 189.922 196.321 175.917 204.571 159.468C210.506 147.633 231.541 145.468 260.712 147.635Z" fill="url(#paint31_linear_272:773)"/>
<path fill-rule="evenodd" clip-rule="evenodd" d="M262.354 138.422C291.525 140.588 312.782 153.681 309.831 167.665C306.881 181.65 280.844 191.231 251.673 189.065C222.503 186.9 201.246 173.806 204.195 159.821C207.145 145.837 233.183 136.255 262.354 138.422Z" fill="url(#paint32_linear_272:773)"/>
<path fill-rule="evenodd" clip-rule="evenodd" d="M240.889 120.14C245.608 107.109 268.854 111.716 277.075 135.598C285.464 139.149 289.136 148.736 288.783 151.498C300.783 156.161 306.52 176.367 291.444 174.906C282.219 171.135 267.793 164.204 248.872 155.031C242.455 151.681 238.13 149.226 234.602 144.823C230.832 140.116 228.65 133.982 228.65 128.752C228.65 118.629 236.082 118.859 240.889 120.14ZM217.274 128.547L232.28 120.797L298.302 173.381L283.297 181.406L217.274 128.547Z" fill="url(#paint33_linear_272:773)"/>
<path d="M228.053 122.995L232.182 120.682L256.794 124.272L297.676 170.698L298.254 173.331L296.19 174.527L292.39 175.644L276.12 173.011L228.053 122.995Z" fill="url(#paint34_linear_272:773)"/>
<path fill-rule="evenodd" clip-rule="evenodd" d="M261.915 144.294L276.946 135.679C276.946 135.679 281.183 136.962 284.379 141.263C289.625 148.322 288.674 152.112 288.674 152.112L273.973 159.77L261.915 144.294Z" fill="url(#paint35_linear_272:773)"/>
<path fill-rule="evenodd" clip-rule="evenodd" d="M225.551 128.166C230.269 115.135 253.516 119.742 261.736 143.624C270.126 147.175 273.798 156.762 273.444 159.524C285.445 164.187 291.181 184.393 276.105 182.932C266.88 179.161 252.455 172.231 233.534 163.057C227.116 159.707 222.792 157.252 219.264 152.849C215.494 148.143 213.312 142.008 213.312 136.778C213.312 126.655 220.744 126.885 225.551 128.166Z" fill="url(#paint36_linear_272:773)"/>
<path fill-rule="evenodd" clip-rule="evenodd" d="M233.613 138.786C233.613 138.786 233.826 137.968 236.614 139.063C240.782 141.003 245.306 143.472 245.306 143.472C245.306 143.472 252.904 146.105 253.287 148.752V158.989L233.613 162.034V138.786Z" fill="url(#paint37_linear_272:773)"/>
<path fill-rule="evenodd" clip-rule="evenodd" d="M233.946 162.31C233.946 162.31 249.671 155.549 252.62 154.285C255.752 157.63 252.953 164.525 252.953 164.525C252.953 164.525 253.34 167.765 253.287 169.509C253.236 171.126 252.953 171.166 252.953 171.166L242.95 167.292L233.946 162.31Z" fill="url(#paint38_linear_272:773)"/>
<path fill-rule="evenodd" clip-rule="evenodd" d="M236.197 138.243L251.483 145.494C252.781 146.11 253.835 147.352 253.835 148.27V169.856C253.835 170.774 252.781 171.017 251.483 170.401L236.197 163.151C234.899 162.534 233.845 161.292 233.845 160.375V138.788C233.845 137.87 234.899 137.627 236.197 138.243Z" stroke="#76AEE2" stroke-width="6"/>
<path fill-rule="evenodd" clip-rule="evenodd" d="M235.53 138.519L250.816 145.77C252.116 146.386 253.168 147.629 253.168 148.546V170.133C253.168 171.05 252.116 171.294 250.816 170.678L235.53 163.427C234.232 162.811 233.18 161.568 233.18 160.651V139.064C233.18 138.147 234.232 137.903 235.53 138.519Z" stroke="#407AEF" stroke-width="6"/>
<path fill-rule="evenodd" clip-rule="evenodd" d="M237.23 145.473L247.514 150.233C248.812 150.849 249.865 152.092 249.865 153.009V167.677C249.865 168.594 248.812 168.838 247.514 168.222L237.23 163.462C235.93 162.846 234.878 161.603 234.878 160.686V146.017C234.878 145.101 235.93 144.857 237.23 145.473Z" fill="url(#paint39_linear_272:773)"/>
<path fill-rule="evenodd" clip-rule="evenodd" d="M235.775 147.578L248.779 153.615V154.445L235.775 148.407V147.578Z" fill="#2E63B3"/>
<path fill-rule="evenodd" clip-rule="evenodd" d="M235.775 150.068L248.779 156.106V156.936L235.775 150.899V150.07V150.068Z" fill="#2E63B3"/>
<path fill-rule="evenodd" clip-rule="evenodd" d="M235.775 152.558L248.779 158.596V159.426L235.775 153.389V152.559V152.558Z" fill="#2E63B3"/>
<path fill-rule="evenodd" clip-rule="evenodd" d="M235.775 155.327L248.779 161.365V162.195L235.775 156.157V155.327V155.327Z" fill="#2E63B3"/>
<path fill-rule="evenodd" clip-rule="evenodd" d="M235.775 158.094L248.779 164.132V164.962L235.775 158.924V158.094Z" fill="#2E63B3"/>
<path fill-rule="evenodd" clip-rule="evenodd" d="M232.56 146.58L242.845 151.34C244.145 151.956 245.197 153.199 245.197 154.116V168.784C245.197 169.701 244.145 169.945 242.845 169.329L232.56 164.568C231.262 163.952 230.209 162.709 230.209 161.792V147.125C230.209 146.209 231.262 145.964 232.56 146.58Z" fill="url(#paint40_linear_272:773)"/>
<path fill-rule="evenodd" clip-rule="evenodd" d="M231.159 149.091L244.164 155.129V155.958L231.159 149.921V149.091Z" fill="#2E63B3"/>
<path fill-rule="evenodd" clip-rule="evenodd" d="M231.159 151.582L244.164 157.62V158.449L231.159 152.412V151.582Z" fill="#2E63B3"/>
<path fill-rule="evenodd" clip-rule="evenodd" d="M231.159 154.073L244.164 160.11V160.94L231.159 154.904V154.074V154.073Z" fill="#2E63B3"/>
<path fill-rule="evenodd" clip-rule="evenodd" d="M231.159 156.84L244.164 162.878V163.707L231.159 157.67V156.84Z" fill="#2E63B3"/>
<path fill-rule="evenodd" clip-rule="evenodd" d="M231.159 159.608L244.164 165.645V166.475L231.159 160.438V159.608V159.608Z" fill="#2E63B3"/>
<path fill-rule="evenodd" clip-rule="evenodd" d="M227.56 147.964L237.843 152.724C239.143 153.34 240.195 154.583 240.195 155.5V170.168C240.195 171.085 239.143 171.329 237.843 170.713L227.56 165.953C226.261 165.337 225.208 164.094 225.208 163.177V148.509C225.208 147.591 226.261 147.348 227.56 147.964Z" fill="url(#paint41_linear_272:773)"/>
<path fill-rule="evenodd" clip-rule="evenodd" d="M226.199 150.133L239.204 156.171V157.001L226.199 150.963V150.133V150.133Z" fill="#2E63B3"/>
<path fill-rule="evenodd" clip-rule="evenodd" d="M226.199 153.177L239.204 159.215V160.046L226.199 154.008V153.178V153.177Z" fill="#2E63B3"/>
<path fill-rule="evenodd" clip-rule="evenodd" d="M226.199 155.669L239.204 161.706V162.536L226.199 156.499V155.669V155.669Z" fill="#2E63B3"/>
<path fill-rule="evenodd" clip-rule="evenodd" d="M226.199 158.436L239.204 164.474V165.303L226.199 159.266V158.436V158.436Z" fill="#2E63B3"/>
<path fill-rule="evenodd" clip-rule="evenodd" d="M226.199 161.203L239.204 167.241V168.071L226.199 162.033V161.203V161.203Z" fill="#2E63B3"/>
<path fill-rule="evenodd" clip-rule="evenodd" d="M222.558 149.071L232.841 153.831C234.141 154.447 235.193 155.69 235.193 156.607V171.275C235.193 172.192 234.141 172.436 232.841 171.82L222.558 167.06C221.259 166.443 220.206 165.201 220.206 164.284V149.616C220.207 148.699 221.259 148.454 222.558 149.071Z" fill="url(#paint42_linear_272:773)"/>
<path fill-rule="evenodd" clip-rule="evenodd" d="M221.276 150.687L234.28 156.725V157.554L221.276 151.516V150.687Z" fill="#2E63B3"/>
<path fill-rule="evenodd" clip-rule="evenodd" d="M221.276 153.177L234.28 159.215V160.046L221.276 154.008V153.178V153.177Z" fill="#2E63B3"/>
<path fill-rule="evenodd" clip-rule="evenodd" d="M221.276 155.669L234.28 161.706V162.536L221.276 156.499V155.669V155.669Z" fill="#2E63B3"/>
<path fill-rule="evenodd" clip-rule="evenodd" d="M221.276 158.436L234.28 164.474V165.303L221.276 159.266V158.436V158.436Z" fill="#2E63B3"/>
<path fill-rule="evenodd" clip-rule="evenodd" d="M221.276 161.203L234.28 167.241V168.071L221.276 162.033V161.203V161.203Z" fill="#2E63B3"/>
<path fill-rule="evenodd" clip-rule="evenodd" d="M221.276 164.248L234.28 170.285V171.115L221.276 165.077V164.248Z" fill="#2E63B3"/>
<path fill-rule="evenodd" clip-rule="evenodd" d="M229.247 171.85L252.255 162.628V167.61L229.247 176.831V171.85Z" fill="url(#paint43_linear_272:773)"/>
<path fill-rule="evenodd" clip-rule="evenodd" d="M213.524 153.741L228.81 160.992C230.108 161.608 231.161 162.851 231.161 163.768V178.436C231.161 179.353 230.108 179.597 228.81 178.981L213.524 171.73C212.225 171.114 211.172 169.871 211.172 168.954V154.286C211.172 153.369 212.225 153.125 213.524 153.741Z" fill="url(#paint44_linear_272:773)"/>
<path fill-rule="evenodd" clip-rule="evenodd" d="M212.523 154.018L227.809 161.269C229.108 161.885 230.161 163.128 230.161 164.045V178.713C230.161 179.63 229.108 179.874 227.809 179.258L212.523 172.006C211.224 171.39 210.171 170.147 210.171 169.23V154.563C210.171 153.646 211.224 153.401 212.523 154.018Z" fill="url(#paint45_linear_272:773)"/>
<path fill-rule="evenodd" clip-rule="evenodd" d="M217.968 161.812L222.784 164.096C222.995 164.196 223.166 164.398 223.166 164.547V168.036C223.166 168.185 222.995 168.225 222.784 168.125L217.968 165.84C217.757 165.74 217.586 165.538 217.586 165.389V161.9C217.586 161.752 217.757 161.712 217.968 161.812Z" fill="url(#paint46_linear_272:773)"/>
<path fill-rule="evenodd" clip-rule="evenodd" d="M214.634 168.731L226.119 174.06C226.33 174.16 226.501 174.361 226.501 174.51V175.508C226.501 175.657 226.33 175.697 226.119 175.597L214.634 170.268C214.423 170.168 214.252 169.966 214.252 169.817V168.819C214.252 168.67 214.423 168.631 214.634 168.731Z" fill="url(#paint47_linear_272:773)"/>
<path fill-rule="evenodd" clip-rule="evenodd" d="M218.509 162.518L222.243 164.288C222.318 164.319 222.384 164.367 222.435 164.428C222.487 164.489 222.522 164.561 222.539 164.638V167.343C222.539 167.458 222.407 167.489 222.243 167.411L218.509 165.64C218.434 165.61 218.368 165.562 218.316 165.501C218.265 165.44 218.229 165.368 218.213 165.291V162.586C218.213 162.471 218.346 162.44 218.509 162.518Z" stroke="#E7F0FF" stroke-width="2"/>
<path d="M264.476 177.01C265.489 177.01 266.311 176.216 266.311 175.237C266.311 174.259 265.489 173.465 264.476 173.465C263.462 173.465 262.641 174.259 262.641 175.237C262.641 176.216 263.462 177.01 264.476 177.01Z" fill="#5666F0"/>
<path d="M269.522 178.956C270.534 178.956 271.355 178.163 271.355 177.186C271.355 176.208 270.534 175.415 269.522 175.415C268.51 175.415 267.689 176.208 267.689 177.186C267.689 178.163 268.51 178.956 269.522 178.956Z" fill="#5666F0"/>
<path d="M274.57 180.906C275.583 180.906 276.403 180.114 276.403 179.136C276.403 178.158 275.583 177.366 274.57 177.366C273.558 177.366 272.738 178.158 272.738 179.136C272.738 180.114 273.558 180.906 274.57 180.906Z" fill="#5666F0"/>
<defs>
<linearGradient id="paint0_linear_272:773" x1="3.5" y1="4.92391" x2="394.678" y2="268.32" gradientUnits="userSpaceOnUse">
<stop stop-color="#5754EA"/>
<stop offset="1" stop-color="#3F50DC"/>
</linearGradient>
<linearGradient id="paint1_linear_272:773" x1="16.7296" y1="110.411" x2="26.06" y2="88.4594" gradientUnits="userSpaceOnUse">
<stop offset="0.0416667" stop-color="white" stop-opacity="0"/>
<stop offset="0.489583" stop-color="white" stop-opacity="0.53"/>
<stop offset="1" stop-color="#407AEF"/>
</linearGradient>
<linearGradient id="paint2_linear_272:773" x1="53.0252" y1="107.157" x2="42.1033" y2="90.4697" gradientUnits="userSpaceOnUse">
<stop stop-color="white" stop-opacity="0"/>
<stop offset="0.442708" stop-color="white" stop-opacity="0.51"/>
<stop offset="1" stop-color="#407AEF"/>
</linearGradient>
<linearGradient id="paint3_linear_272:773" x1="34.8072" y1="93.1741" x2="34.8072" y2="78.842" gradientUnits="userSpaceOnUse">
<stop stop-color="#3944D4"/>
<stop offset="1" stop-color="#8CADF1"/>
</linearGradient>
<linearGradient id="paint4_linear_272:773" x1="34.7229" y1="90.4351" x2="34.7229" y2="76.1029" gradientUnits="userSpaceOnUse">
<stop stop-color="#6191F1"/>
<stop offset="1" stop-color="#A6CFF5"/>
</linearGradient>
<linearGradient id="paint5_linear_272:773" x1="232.303" y1="134" x2="242.563" y2="116.296" gradientUnits="userSpaceOnUse">
<stop offset="0.0416667" stop-color="white" stop-opacity="0"/>
<stop offset="0.489583" stop-color="white" stop-opacity="0.53"/>
<stop offset="1" stop-color="#407AEF"/>
</linearGradient>
<linearGradient id="paint6_linear_272:773" x1="256.594" y1="131.031" x2="245.789" y2="118.923" gradientUnits="userSpaceOnUse">
<stop stop-color="white" stop-opacity="0"/>
<stop offset="0.442708" stop-color="white" stop-opacity="0.51"/>
<stop offset="1" stop-color="#407AEF"/>
</linearGradient>
<linearGradient id="paint7_linear_272:773" x1="244.402" y1="118.271" x2="244.402" y2="105.193" gradientUnits="userSpaceOnUse">
<stop stop-color="#3944D4"/>
<stop offset="1" stop-color="#8CADF1"/>
</linearGradient>
<linearGradient id="paint8_linear_272:773" x1="244.345" y1="115.772" x2="244.345" y2="102.694" gradientUnits="userSpaceOnUse">
<stop stop-color="#6191F1"/>
<stop offset="1" stop-color="#A6CFF5"/>
</linearGradient>
<linearGradient id="paint9_linear_272:773" x1="295.122" y1="167.808" x2="303.595" y2="153.329" gradientUnits="userSpaceOnUse">
<stop offset="0.0416667" stop-color="white" stop-opacity="0"/>
<stop offset="0.489583" stop-color="white" stop-opacity="0.53"/>
<stop offset="1" stop-color="#407AEF"/>
</linearGradient>
<linearGradient id="paint10_linear_272:773" x1="314.893" y1="165.368" x2="306.003" y2="155.502" gradientUnits="userSpaceOnUse">
<stop stop-color="white" stop-opacity="0"/>
<stop offset="0.442708" stop-color="white" stop-opacity="0.51"/>
<stop offset="1" stop-color="#407AEF"/>
</linearGradient>
<linearGradient id="paint11_linear_272:773" x1="304.969" y1="154.881" x2="304.969" y2="144.131" gradientUnits="userSpaceOnUse">
<stop stop-color="#3944D4"/>
<stop offset="1" stop-color="#8CADF1"/>
</linearGradient>
<linearGradient id="paint12_linear_272:773" x1="304.923" y1="152.826" x2="304.923" y2="142.077" gradientUnits="userSpaceOnUse">
<stop stop-color="#6191F1"/>
<stop offset="1" stop-color="#A6CFF5"/>
</linearGradient>
<linearGradient id="paint13_linear_272:773" x1="318.259" y1="117.383" x2="331.685" y2="92.5775" gradientUnits="userSpaceOnUse">
<stop offset="0.0416667" stop-color="white" stop-opacity="0"/>
<stop offset="0.489583" stop-color="white" stop-opacity="0.53"/>
<stop offset="1" stop-color="#407AEF"/>
</linearGradient>
<linearGradient id="paint14_linear_272:773" x1="353.532" y1="113.357" x2="339.025" y2="95.9506" gradientUnits="userSpaceOnUse">
<stop stop-color="white" stop-opacity="0"/>
<stop offset="0.442708" stop-color="white" stop-opacity="0.51"/>
<stop offset="1" stop-color="#407AEF"/>
</linearGradient>
<linearGradient id="paint15_linear_272:773" x1="335.827" y1="96.053" x2="335.827" y2="78.3169" gradientUnits="userSpaceOnUse">
<stop stop-color="#3944D4"/>
<stop offset="1" stop-color="#8CADF1"/>
</linearGradient>
<linearGradient id="paint16_linear_272:773" x1="335.745" y1="92.6634" x2="335.745" y2="74.9273" gradientUnits="userSpaceOnUse">
<stop stop-color="#6191F1"/>
<stop offset="1" stop-color="#A6CFF5"/>
</linearGradient>
<linearGradient id="paint17_linear_272:773" x1="204.748" y1="249.863" x2="218.095" y2="226.816" gradientUnits="userSpaceOnUse">
<stop offset="0.0416667" stop-color="white" stop-opacity="0"/>
<stop offset="0.489583" stop-color="white" stop-opacity="0.53"/>
<stop offset="1" stop-color="#407AEF"/>
</linearGradient>
<linearGradient id="paint18_linear_272:773" x1="236.382" y1="245.999" x2="222.322" y2="230.232" gradientUnits="userSpaceOnUse">
<stop stop-color="white" stop-opacity="0"/>
<stop offset="0.442708" stop-color="white" stop-opacity="0.51"/>
<stop offset="1" stop-color="#407AEF"/>
</linearGradient>
<linearGradient id="paint19_linear_272:773" x1="220.503" y1="229.394" x2="220.503" y2="212.375" gradientUnits="userSpaceOnUse">
<stop stop-color="#3944D4"/>
<stop offset="1" stop-color="#8CADF1"/>
</linearGradient>
<linearGradient id="paint20_linear_272:773" x1="220.43" y1="226.142" x2="220.43" y2="209.122" gradientUnits="userSpaceOnUse">
<stop stop-color="#6191F1"/>
<stop offset="1" stop-color="#A6CFF5"/>
</linearGradient>
<linearGradient id="paint21_linear_272:773" x1="141.483" y1="132.616" x2="147.518" y2="120.362" gradientUnits="userSpaceOnUse">
<stop offset="0.0416667" stop-color="white" stop-opacity="0"/>
<stop offset="0.489583" stop-color="white" stop-opacity="0.53"/>
<stop offset="1" stop-color="#407AEF"/>
</linearGradient>
<linearGradient id="paint22_linear_272:773" x1="159.886" y1="130.705" x2="153.144" y2="121.814" gradientUnits="userSpaceOnUse">
<stop stop-color="white" stop-opacity="0"/>
<stop offset="0.442708" stop-color="white" stop-opacity="0.51"/>
<stop offset="1" stop-color="#407AEF"/>
</linearGradient>
<linearGradient id="paint23_linear_272:773" x1="150.649" y1="122.49" x2="150.649" y2="114.07" gradientUnits="userSpaceOnUse">
<stop stop-color="#3944D4"/>
<stop offset="1" stop-color="#8CADF1"/>
</linearGradient>
<linearGradient id="paint24_linear_272:773" x1="150.606" y1="120.881" x2="150.606" y2="112.46" gradientUnits="userSpaceOnUse">
<stop stop-color="#6191F1"/>
<stop offset="1" stop-color="#A6CFF5"/>
</linearGradient>
<linearGradient id="paint25_linear_272:773" x1="320.943" y1="233.315" x2="336.497" y2="206.805" gradientUnits="userSpaceOnUse">
<stop offset="0.0416667" stop-color="white" stop-opacity="0"/>
<stop offset="0.489583" stop-color="white" stop-opacity="0.53"/>
<stop offset="1" stop-color="#407AEF"/>
</linearGradient>
<linearGradient id="paint26_linear_272:773" x1="357.096" y1="228.841" x2="340.793" y2="210.796" gradientUnits="userSpaceOnUse">
<stop stop-color="white" stop-opacity="0"/>
<stop offset="0.442708" stop-color="white" stop-opacity="0.51"/>
<stop offset="1" stop-color="#407AEF"/>
</linearGradient>
<linearGradient id="paint27_linear_272:773" x1="338.949" y1="209.614" x2="338.949" y2="189.908" gradientUnits="userSpaceOnUse">
<stop stop-color="#3944D4"/>
<stop offset="1" stop-color="#8CADF1"/>
</linearGradient>
<linearGradient id="paint28_linear_272:773" x1="338.865" y1="205.848" x2="338.865" y2="186.142" gradientUnits="userSpaceOnUse">
<stop stop-color="#6191F1"/>
<stop offset="1" stop-color="#A6CFF5"/>
</linearGradient>
<linearGradient id="paint29_linear_272:773" x1="196.003" y1="184.181" x2="315.553" y2="164.577" gradientUnits="userSpaceOnUse">
<stop offset="0.00520833" stop-color="#2B60D4"/>
<stop offset="0.994792" stop-color="#1F4DAB"/>
</linearGradient>
<linearGradient id="paint30_linear_272:773" x1="256.012" y1="197.072" x2="256.012" y2="139.867" gradientUnits="userSpaceOnUse">
<stop stop-color="#4E84F0"/>
<stop offset="1" stop-color="#B4C8F0"/>
</linearGradient>
<linearGradient id="paint31_linear_272:773" x1="203.018" y1="182.522" x2="309.503" y2="155.034" gradientUnits="userSpaceOnUse">
<stop offset="0.348958" stop-color="#275FD1"/>
<stop offset="1" stop-color="#1A49AA"/>
</linearGradient>
<linearGradient id="paint32_linear_272:773" x1="257.013" y1="189.369" x2="257.013" y2="138.117" gradientUnits="userSpaceOnUse">
<stop stop-color="#407AEF"/>
<stop offset="1" stop-color="#ABC4F6"/>
</linearGradient>
<linearGradient id="paint33_linear_272:773" x1="263.154" y1="120.682" x2="263.154" y2="175.644" gradientUnits="userSpaceOnUse">
<stop stop-color="#4981EF"/>
<stop offset="1" stop-color="#689EF1"/>
</linearGradient>
<linearGradient id="paint34_linear_272:773" x1="263.154" y1="120.682" x2="263.154" y2="175.644" gradientUnits="userSpaceOnUse">
<stop stop-color="#4981EF"/>
<stop offset="1" stop-color="#689EF1"/>
</linearGradient>
<linearGradient id="paint35_linear_272:773" x1="275.328" y1="159.77" x2="275.328" y2="135.679" gradientUnits="userSpaceOnUse">
<stop stop-color="#346AD6"/>
<stop offset="1" stop-color="#4880EF"/>
</linearGradient>
<linearGradient id="paint36_linear_272:773" x1="249.237" y1="183.008" x2="249.237" y2="121.026" gradientUnits="userSpaceOnUse">
<stop stop-color="#86ABF4"/>
<stop offset="1" stop-color="#618FEB"/>
</linearGradient>
<linearGradient id="paint37_linear_272:773" x1="253.289" y1="145.142" x2="233.94" y2="156.246" gradientUnits="userSpaceOnUse">
<stop stop-color="#1A4788"/>
<stop offset="1" stop-color="#5A8BD1"/>
</linearGradient>
<linearGradient id="paint38_linear_272:773" x1="254.105" y1="157.33" x2="234.283" y2="168.706" gradientUnits="userSpaceOnUse">
<stop stop-color="#1A4788"/>
<stop offset="1" stop-color="#1A4788"/>
</linearGradient>
<linearGradient id="paint39_linear_272:773" x1="242.371" y1="168.559" x2="242.371" y2="145.132" gradientUnits="userSpaceOnUse">
<stop stop-color="#508BDF"/>
<stop offset="1" stop-color="#81AEF3"/>
</linearGradient>
<linearGradient id="paint40_linear_272:773" x1="15763.3" y1="16172.2" x2="15763.3" y2="12731.9" gradientUnits="userSpaceOnUse">
<stop stop-color="#508BDF"/>
<stop offset="1" stop-color="#81AEF3"/>
</linearGradient>
<linearGradient id="paint41_linear_272:773" x1="15304.5" y1="16377.6" x2="15304.5" y2="12937.2" gradientUnits="userSpaceOnUse">
<stop stop-color="#508BDF"/>
<stop offset="1" stop-color="#81AEF3"/>
</linearGradient>
<linearGradient id="paint42_linear_272:773" x1="14845.8" y1="16541.3" x2="14845.8" y2="13100.8" gradientUnits="userSpaceOnUse">
<stop stop-color="#508BDF"/>
<stop offset="1" stop-color="#81AEF3"/>
</linearGradient>
<linearGradient id="paint43_linear_272:773" x1="229.246" y1="175.151" x2="251.943" y2="163.69" gradientUnits="userSpaceOnUse">
<stop stop-color="#5584C8"/>
<stop offset="1" stop-color="#4176BA"/>
</linearGradient>
<linearGradient id="paint44_linear_272:773" x1="221.167" y1="179.318" x2="221.167" y2="153.403" gradientUnits="userSpaceOnUse">
<stop stop-color="#A8C1E3"/>
<stop offset="1" stop-color="#CCDEF9"/>
</linearGradient>
<linearGradient id="paint45_linear_272:773" x1="220.165" y1="179.597" x2="220.165" y2="153.677" gradientUnits="userSpaceOnUse">
<stop stop-color="#5666F0"/>
<stop offset="1" stop-color="#407AEF"/>
</linearGradient>
<linearGradient id="paint46_linear_272:773" x1="220.374" y1="168.18" x2="220.374" y2="161.759" gradientUnits="userSpaceOnUse">
<stop stop-color="#C3CFE1"/>
<stop offset="1" stop-color="#81AEF4"/>
</linearGradient>
<linearGradient id="paint47_linear_272:773" x1="11624.6" y1="5202.79" x2="11624.6" y2="4897.56" gradientUnits="userSpaceOnUse">
<stop stop-color="#BED3F0"/>
<stop offset="1" stop-color="#DFE9F8"/>
</linearGradient>
</defs>
</svg>
