<svg width="107" height="48" viewBox="0 0 107 48" fill="none" xmlns="http://www.w3.org/2000/svg">
<rect width="107" height="48" rx="4" fill="white" fill-opacity="0.4"/>
<path d="M11.72 11.86H16.78V12.57H12.54V14.96H16.54V15.67H12.54V18.29H16.95V19H11.72V11.86ZM20.4872 11.72C21.3005 11.72 21.9339 11.9033 22.3872 12.27C22.8605 12.65 23.1339 13.2167 23.2072 13.97H22.3972C22.3105 13.4567 22.1105 13.0733 21.7972 12.82C21.4839 12.5667 21.0339 12.44 20.4472 12.44C19.9072 12.44 19.4939 12.5267 19.2072 12.7C18.8672 12.9 18.6972 13.2033 18.6972 13.61C18.6972 13.97 18.9005 14.26 19.3072 14.48C19.4805 14.58 19.9172 14.73 20.6172 14.93C21.5572 15.21 22.1772 15.44 22.4772 15.62C23.0705 15.98 23.3672 16.4833 23.3672 17.13C23.3672 17.7567 23.1172 18.25 22.6172 18.61C22.1105 18.9633 21.4372 19.14 20.5972 19.14C19.7572 19.14 19.0972 18.96 18.6172 18.6C18.0572 18.1667 17.7472 17.5133 17.6872 16.64H18.4972C18.5705 17.26 18.7872 17.7167 19.1472 18.01C19.4872 18.2767 19.9705 18.41 20.5972 18.41C21.1839 18.41 21.6572 18.3 22.0172 18.08C22.3772 17.86 22.5572 17.56 22.5572 17.18C22.5572 16.7333 22.3205 16.3833 21.8472 16.13C21.6672 16.0233 21.1639 15.85 20.3372 15.61C19.4972 15.3567 18.9505 15.1633 18.6972 15.03C18.1505 14.71 17.8772 14.25 17.8772 13.65C17.8772 13.0233 18.1405 12.54 18.6672 12.2C19.1405 11.88 19.7472 11.72 20.4872 11.72ZM24.4055 11.86H27.3255C28.9655 11.86 29.7855 12.56 29.7855 13.96C29.7855 15.3733 28.9622 16.08 27.3155 16.08H25.2255V19H24.4055V11.86ZM25.2255 12.57V15.37H27.2755C27.8422 15.37 28.2689 15.2533 28.5555 15.02C28.8289 14.7867 28.9655 14.4333 28.9655 13.96C28.9655 13.4733 28.8255 13.1267 28.5455 12.92C28.2722 12.6867 27.8489 12.57 27.2755 12.57H25.2255ZM33.1716 11.72C33.8649 11.72 34.4182 11.8933 34.8316 12.24C35.2449 12.5933 35.4516 13.0667 35.4516 13.66C35.4516 14.4667 35.0616 15 34.2816 15.26C34.7082 15.3933 35.0282 15.5967 35.2416 15.87C35.4816 16.15 35.6016 16.5 35.6016 16.92C35.6016 17.5667 35.3749 18.0967 34.9216 18.51C34.4616 18.93 33.8616 19.14 33.1216 19.14C32.4549 19.14 31.9016 18.9667 31.4616 18.62C30.9549 18.2 30.6716 17.59 30.6116 16.79H31.4416C31.4616 17.35 31.6482 17.7767 32.0016 18.07C32.3082 18.3167 32.6816 18.44 33.1216 18.44C33.6282 18.44 34.0382 18.2933 34.3516 18C34.6382 17.7133 34.7816 17.3633 34.7816 16.95C34.7816 16.5233 34.6416 16.19 34.3616 15.95C34.0882 15.7167 33.7016 15.6 33.2016 15.6H32.6216V14.96H33.1716C33.6449 14.96 34.0082 14.8533 34.2616 14.64C34.5149 14.42 34.6416 14.11 34.6416 13.71C34.6416 13.3167 34.5182 13.0067 34.2716 12.78C34.0182 12.5467 33.6549 12.43 33.1816 12.43C32.6949 12.43 32.3216 12.5567 32.0616 12.81C31.7882 13.0633 31.6249 13.4333 31.5716 13.92H30.7616C30.8216 13.2333 31.0749 12.6933 31.5216 12.3C31.9349 11.9133 32.4849 11.72 33.1716 11.72ZM39.1977 11.72C39.8577 11.72 40.401 11.91 40.8277 12.29C41.2543 12.6767 41.4677 13.18 41.4677 13.8C41.4677 14.4133 41.2343 14.9733 40.7677 15.48C40.4943 15.7667 40.001 16.15 39.2877 16.63C38.381 17.2367 37.861 17.7833 37.7277 18.27H41.4777V19H36.7177C36.7177 18.34 36.9543 17.75 37.4277 17.23C37.7343 16.8833 38.251 16.46 38.9777 15.96C39.5443 15.5533 39.9177 15.2567 40.0977 15.07C40.4643 14.67 40.6477 14.2433 40.6477 13.79C40.6477 13.3567 40.5177 13.02 40.2577 12.78C39.9977 12.54 39.6343 12.42 39.1677 12.42C38.6677 12.42 38.291 12.5867 38.0377 12.92C37.751 13.2467 37.6043 13.7233 37.5977 14.35H36.7777C36.7777 13.5567 37.001 12.92 37.4477 12.44C37.8877 11.96 38.471 11.72 39.1977 11.72ZM43.8238 17.6C44.2371 17.8933 44.6204 18.2267 44.9738 18.6C45.3004 18.9333 45.5871 19.2767 45.8338 19.63L45.3338 20.05C45.1138 19.7367 44.8304 19.3967 44.4838 19.03C44.1371 18.65 43.7671 18.3133 43.3738 18.02L43.8238 17.6ZM52.8138 11.86H57.8738V12.57H53.6338V14.96H57.6338V15.67H53.6338V18.29H58.0438V19H52.8138V11.86ZM61.5809 11.72C62.3943 11.72 63.0276 11.9033 63.4809 12.27C63.9543 12.65 64.2276 13.2167 64.3009 13.97H63.4909C63.4043 13.4567 63.2043 13.0733 62.8909 12.82C62.5776 12.5667 62.1276 12.44 61.5409 12.44C61.0009 12.44 60.5876 12.5267 60.3009 12.7C59.9609 12.9 59.7909 13.2033 59.7909 13.61C59.7909 13.97 59.9943 14.26 60.4009 14.48C60.5743 14.58 61.0109 14.73 61.7109 14.93C62.6509 15.21 63.2709 15.44 63.5709 15.62C64.1643 15.98 64.4609 16.4833 64.4609 17.13C64.4609 17.7567 64.2109 18.25 63.7109 18.61C63.2043 18.9633 62.5309 19.14 61.6909 19.14C60.8509 19.14 60.1909 18.96 59.7109 18.6C59.1509 18.1667 58.8409 17.5133 58.7809 16.64H59.5909C59.6643 17.26 59.8809 17.7167 60.2409 18.01C60.5809 18.2767 61.0643 18.41 61.6909 18.41C62.2776 18.41 62.7509 18.3 63.1109 18.08C63.4709 17.86 63.6509 17.56 63.6509 17.18C63.6509 16.7333 63.4143 16.3833 62.9409 16.13C62.7609 16.0233 62.2576 15.85 61.4309 15.61C60.5909 15.3567 60.0443 15.1633 59.7909 15.03C59.2443 14.71 58.9709 14.25 58.9709 13.65C58.9709 13.0233 59.2343 12.54 59.7609 12.2C60.2343 11.88 60.8409 11.72 61.5809 11.72ZM65.4993 11.86H68.4193C70.0593 11.86 70.8793 12.56 70.8793 13.96C70.8793 15.3733 70.056 16.08 68.4093 16.08H66.3193V19H65.4993V11.86ZM66.3193 12.57V15.37H68.3693C68.936 15.37 69.3626 15.2533 69.6493 15.02C69.9226 14.7867 70.0593 14.4333 70.0593 13.96C70.0593 13.4733 69.9193 13.1267 69.6393 12.92C69.366 12.6867 68.9426 12.57 68.3693 12.57H66.3193ZM74.1953 11.72C74.9486 11.72 75.532 11.9133 75.9453 12.3C76.332 12.6533 76.5253 13.09 76.5253 13.61C76.5253 13.99 76.4353 14.31 76.2553 14.57C76.0486 14.8567 75.7653 15.0633 75.4053 15.19V15.21C75.7786 15.3033 76.0953 15.51 76.3553 15.83C76.6353 16.17 76.7753 16.57 76.7753 17.03C76.7753 17.6633 76.5553 18.17 76.1153 18.55C75.6486 18.9433 75.0086 19.14 74.1953 19.14C73.3686 19.14 72.7286 18.9433 72.2753 18.55C71.8353 18.17 71.6153 17.6633 71.6153 17.03C71.6153 16.57 71.7553 16.17 72.0353 15.83C72.302 15.5033 72.6186 15.2967 72.9853 15.21V15.19C72.612 15.0633 72.3286 14.8567 72.1353 14.57C71.9553 14.31 71.8653 13.99 71.8653 13.61C71.8653 13.0833 72.0586 12.6467 72.4453 12.3C72.8586 11.9133 73.442 11.72 74.1953 11.72ZM74.1953 12.39C73.682 12.39 73.2853 12.52 73.0053 12.78C72.7586 13 72.6353 13.2867 72.6353 13.64C72.6353 14.0067 72.7453 14.3 72.9653 14.52C73.232 14.7867 73.642 14.92 74.1953 14.92C74.7353 14.92 75.1453 14.7867 75.4253 14.52C75.6453 14.3 75.7553 14.0067 75.7553 13.64C75.7553 13.2933 75.632 13.0067 75.3853 12.78C75.0986 12.52 74.702 12.39 74.1953 12.39ZM74.1953 15.56C73.6153 15.56 73.172 15.7033 72.8653 15.99C72.572 16.2433 72.4253 16.59 72.4253 17.03C72.4253 17.4633 72.572 17.8067 72.8653 18.06C73.172 18.3333 73.6153 18.47 74.1953 18.47C74.7686 18.47 75.2153 18.33 75.5353 18.05C75.822 17.7833 75.9653 17.4433 75.9653 17.03C75.9653 16.6033 75.822 16.2567 75.5353 15.99C75.222 15.7033 74.7753 15.56 74.1953 15.56ZM80.2914 11.72C80.9514 11.72 81.4947 11.91 81.9214 12.29C82.3481 12.6767 82.5614 13.18 82.5614 13.8C82.5614 14.4133 82.3281 14.9733 81.8614 15.48C81.5881 15.7667 81.0947 16.15 80.3814 16.63C79.4747 17.2367 78.9547 17.7833 78.8214 18.27H82.5714V19H77.8114C77.8114 18.34 78.0481 17.75 78.5214 17.23C78.8281 16.8833 79.3447 16.46 80.0714 15.96C80.6381 15.5533 81.0114 15.2567 81.1914 15.07C81.5581 14.67 81.7414 14.2433 81.7414 13.79C81.7414 13.3567 81.6114 13.02 81.3514 12.78C81.0914 12.54 80.7281 12.42 80.2614 12.42C79.7614 12.42 79.3847 12.5867 79.1314 12.92C78.8447 13.2467 78.6981 13.7233 78.6914 14.35H77.8714C77.8714 13.5567 78.0947 12.92 78.5414 12.44C78.9814 11.96 79.5647 11.72 80.2914 11.72ZM86.2875 11.72C87.6075 11.72 88.3675 12.3567 88.5675 13.63H87.7575C87.5975 12.8167 87.1042 12.41 86.2775 12.41C85.7108 12.41 85.2708 12.6867 84.9575 13.24C84.6442 13.7467 84.4875 14.4133 84.4875 15.24C84.4875 15.3267 84.4908 15.4133 84.4975 15.5H84.5375C84.7242 15.12 84.9808 14.8333 85.3075 14.64C85.6208 14.4333 85.9908 14.33 86.4175 14.33C87.0975 14.33 87.6475 14.55 88.0675 14.99C88.4808 15.4367 88.6875 16.0033 88.6875 16.69C88.6875 17.39 88.4608 17.9733 88.0075 18.44C87.5408 18.9067 86.9642 19.14 86.2775 19.14C85.4175 19.14 84.7642 18.8167 84.3175 18.17C83.9042 17.57 83.6975 16.72 83.6975 15.62C83.6975 14.4733 83.9208 13.5467 84.3675 12.84C84.8342 12.0933 85.4742 11.72 86.2875 11.72ZM86.2575 15.01C85.7908 15.01 85.4008 15.17 85.0875 15.49C84.7808 15.8033 84.6275 16.21 84.6275 16.71C84.6275 17.2167 84.7742 17.6267 85.0675 17.94C85.3675 18.28 85.7642 18.45 86.2575 18.45C86.7308 18.45 87.1208 18.2867 87.4275 17.96C87.7275 17.62 87.8775 17.1967 87.8775 16.69C87.8775 16.19 87.7308 15.7867 87.4375 15.48C87.1442 15.1667 86.7508 15.01 86.2575 15.01ZM92.2836 11.72C93.6036 11.72 94.3636 12.3567 94.5636 13.63H93.7536C93.5936 12.8167 93.1003 12.41 92.2736 12.41C91.7069 12.41 91.2669 12.6867 90.9536 13.24C90.6403 13.7467 90.4836 14.4133 90.4836 15.24C90.4836 15.3267 90.4869 15.4133 90.4936 15.5H90.5336C90.7203 15.12 90.9769 14.8333 91.3036 14.64C91.6169 14.4333 91.9869 14.33 92.4136 14.33C93.0936 14.33 93.6436 14.55 94.0636 14.99C94.4769 15.4367 94.6836 16.0033 94.6836 16.69C94.6836 17.39 94.4569 17.9733 94.0036 18.44C93.5369 18.9067 92.9603 19.14 92.2736 19.14C91.4136 19.14 90.7603 18.8167 90.3136 18.17C89.9003 17.57 89.6936 16.72 89.6936 15.62C89.6936 14.4733 89.9169 13.5467 90.3636 12.84C90.8303 12.0933 91.4703 11.72 92.2836 11.72ZM92.2536 15.01C91.7869 15.01 91.3969 15.17 91.0836 15.49C90.7769 15.8033 90.6236 16.21 90.6236 16.71C90.6236 17.2167 90.7703 17.6267 91.0636 17.94C91.3636 18.28 91.7603 18.45 92.2536 18.45C92.7269 18.45 93.1169 18.2867 93.4236 17.96C93.7236 17.62 93.8736 17.1967 93.8736 16.69C93.8736 16.19 93.7269 15.7867 93.4336 15.48C93.1403 15.1667 92.7469 15.01 92.2536 15.01ZM11.72 29.86H12.53V36.29H16.66V37H11.72V29.86ZM20.7189 29.72C21.7922 29.72 22.6356 30.0767 23.2489 30.79C23.8356 31.4767 24.1289 32.36 24.1289 33.44C24.1289 34.5067 23.8356 35.3833 23.2489 36.07C22.6289 36.7833 21.7822 37.14 20.7089 37.14C19.6422 37.14 18.7989 36.7833 18.1789 36.07C17.5922 35.3967 17.2989 34.52 17.2989 33.44C17.2989 32.3533 17.5922 31.4733 18.1789 30.8C18.7989 30.08 19.6456 29.72 20.7189 29.72ZM20.7189 30.45C19.8922 30.45 19.2456 30.7333 18.7789 31.3C18.3389 31.84 18.1189 32.5533 18.1189 33.44C18.1189 34.32 18.3389 35.03 18.7789 35.57C19.2389 36.13 19.8822 36.41 20.7089 36.41C21.5289 36.41 22.1722 36.1367 22.6389 35.59C23.0856 35.0433 23.3089 34.3267 23.3089 33.44C23.3089 32.54 23.0856 31.8167 22.6389 31.27C22.1789 30.7233 21.5389 30.45 20.7189 30.45ZM25.2649 29.86H28.3449C29.0583 29.86 29.6183 30.0233 30.0249 30.35C30.4516 30.6967 30.6649 31.1967 30.6649 31.85C30.6649 32.2433 30.5549 32.5967 30.3349 32.91C30.1016 33.2233 29.7783 33.43 29.3649 33.53V33.55C30.0449 33.7033 30.4249 34.1367 30.5049 34.85L30.6149 35.95C30.6549 36.3833 30.7816 36.7333 30.9949 37H30.1049C29.9383 36.7533 29.8416 36.4367 29.8149 36.05L29.7249 35.1C29.6849 34.6733 29.5349 34.37 29.2749 34.19C29.0416 34.0167 28.6983 33.93 28.2449 33.93H26.0849V37H25.2649V29.86ZM26.0849 30.57V33.22H28.2449C28.7649 33.22 29.1683 33.0967 29.4549 32.85C29.7083 32.6167 29.8349 32.2933 29.8349 31.88C29.8349 31.44 29.7116 31.1133 29.4649 30.9C29.2049 30.68 28.7983 30.57 28.2449 30.57H26.0849ZM34.1127 29.86H35.0627L37.8727 37H36.9827L36.2227 35H32.9427L32.1827 37H31.3027L34.1127 29.86ZM33.2027 34.31H35.9627L34.6127 30.74H34.5727L33.2027 34.31ZM39.605 35.6C40.0183 35.8933 40.4017 36.2267 40.755 36.6C41.0817 36.9333 41.3683 37.2767 41.615 37.63L41.115 38.05C40.895 37.7367 40.6117 37.3967 40.265 37.03C39.9183 36.65 39.5483 36.3133 39.155 36.02L39.605 35.6ZM47.925 29.86H48.845L50.415 35.85H50.455L52.085 29.86H52.975L54.595 35.85H54.635L56.205 29.86H57.125L55.075 37H54.165L52.545 31.05H52.515L50.885 37H49.975L47.925 29.86ZM57.9519 29.86H58.7619V37H57.9519V29.86ZM60.2649 29.86H65.0449V30.57H61.0849V32.97H64.8349V33.68H61.0849V37H60.2649V29.86ZM66.0964 29.86H66.9064V37H66.0964V29.86Z" fill="white"/>
<rect x="0.2" y="0.2" width="106.6" height="47.6" rx="3.8" stroke="white" stroke-opacity="0.8" stroke-width="0.4"/>
</svg>
