<svg width="105" height="48" viewBox="0 0 105 48" fill="none" xmlns="http://www.w3.org/2000/svg">
<rect width="105" height="48" rx="4" fill="white" fill-opacity="0.4"/>
<path d="M30.81 20.86H31.76L34.57 28H33.68L32.92 26H29.64L28.88 28H28L30.81 20.86ZM29.9 25.31H32.66L31.31 21.74H31.27L29.9 25.31ZM35.3523 20.86H36.1623V28H35.3523V20.86ZM38.6753 26.6C39.0886 26.8933 39.472 27.2267 39.8253 27.6C40.152 27.9333 40.4386 28.2767 40.6853 28.63L40.1853 29.05C39.9653 28.7367 39.682 28.3967 39.3353 28.03C38.9886 27.65 38.6186 27.3133 38.2253 27.02L38.6753 26.6ZM53.5253 22.05C53.4586 22.29 53.412 22.4667 53.3853 22.58C53.632 23.7133 53.9586 24.71 54.3653 25.57C54.752 24.5567 54.9653 23.3833 55.0053 22.05H53.5253ZM54.0353 26.31C53.642 25.5233 53.312 24.64 53.0453 23.66C52.872 24.1 52.6753 24.51 52.4553 24.89L52.0053 24.34C52.5986 23.2133 52.9953 21.7033 53.1953 19.81L53.8953 19.93C53.8486 20.3433 53.7753 20.82 53.6753 21.36H56.3153V22.05H55.6653C55.6253 23.7167 55.3286 25.1433 54.7753 26.33C55.302 27.21 55.9186 27.8867 56.6253 28.36L56.2153 28.97C55.5286 28.49 54.932 27.8333 54.4253 27C53.9386 27.8 53.3186 28.47 52.5653 29.01L52.1853 28.4C52.9653 27.86 53.582 27.1633 54.0353 26.31ZM49.9853 24.55L49.7853 25.1H51.8653V25.71C51.6453 26.3633 51.282 26.93 50.7753 27.41C51.2486 27.61 51.6986 27.83 52.1253 28.07L51.7353 28.65C51.2753 28.3767 50.7686 28.1167 50.2153 27.87C49.542 28.33 48.7086 28.7 47.7153 28.98L47.3653 28.36C48.1986 28.14 48.8986 27.8667 49.4653 27.54L48.0753 26.98C48.3553 26.52 48.582 26.11 48.7553 25.75H47.5853V25.1H49.0553C49.222 24.6333 49.2986 24.4233 49.2853 24.47L49.9853 24.55ZM50.0853 27.12C50.5853 26.7133 50.952 26.2567 51.1853 25.75H49.4953C49.3286 26.09 49.1486 26.4067 48.9553 26.7C49.3553 26.84 49.732 26.98 50.0853 27.12ZM48.3753 20.05C48.6353 20.4567 48.8486 20.8667 49.0153 21.28L48.4553 21.54C48.2486 21.0667 48.022 20.6367 47.7753 20.25L48.3753 20.05ZM51.9653 20.26C51.7586 20.7133 51.502 21.1467 51.1953 21.56L50.6553 21.27C50.9753 20.8167 51.222 20.3867 51.3953 19.98L51.9653 20.26ZM47.6153 21.75H49.5653V19.84H50.2353V21.75H52.0553V22.38H50.2353V22.49C50.782 22.7633 51.3353 23.07 51.8953 23.41L51.5253 23.97C51.0253 23.57 50.5953 23.25 50.2353 23.01V24.31H49.5653V22.41C49.2386 23.19 48.642 23.8733 47.7753 24.46L47.4253 23.88C48.1986 23.4267 48.7353 22.9267 49.0353 22.38H47.6153V21.75ZM57.7353 28.91L57.5853 28.23C57.872 28.2633 58.1253 28.28 58.3453 28.28C58.5986 28.28 58.7253 28.1333 58.7253 27.84V25.4C58.2586 25.5733 57.8653 25.71 57.5453 25.81L57.3653 25.11C57.8186 25.0033 58.272 24.8667 58.7253 24.7V22.44H57.5253V21.75H58.7253V19.86H59.4253V21.75H60.3853V22.44H59.4253V24.41C59.7453 24.27 60.0553 24.12 60.3553 23.96V24.67C60.1486 24.7767 59.8386 24.9233 59.4253 25.11V28.02C59.4253 28.6133 59.1453 28.91 58.5853 28.91H57.7353ZM61.5753 24.49C61.4553 26.1967 61.0653 27.7 60.4053 29L59.8453 28.5C60.552 27.18 60.912 25.4667 60.9253 23.36V20.23H66.1953V22.66H64.3153V23.84H66.4553V24.49H64.3153V25.72H65.9953V29H65.3253V28.51H62.6153V29H61.9453V25.72H63.6153V24.49H61.5753ZM63.6153 22.66H61.6253L61.6153 23.84H63.6153V22.66ZM62.6153 27.87H65.3253V26.36H62.6153V27.87ZM65.4953 20.9H61.6253V22.01H65.4953V20.9ZM72.2853 19.75C72.472 20.05 72.642 20.3733 72.7953 20.72H76.3953V21.42H68.9853V23.7C68.9453 25.9267 68.6086 27.6933 67.9753 29L67.3853 28.47C67.9386 27.3233 68.2253 25.7333 68.2453 23.7V20.72H72.0053C71.852 20.4267 71.6786 20.15 71.4853 19.89L72.2853 19.75ZM72.3253 21.86C72.2653 22.0467 72.1753 22.3133 72.0553 22.66H75.9553V23.29H71.8053C71.5253 23.93 71.2253 24.5 70.9053 25H72.7753V23.79H73.4953V25H75.7253V25.65H73.4953V26.77H76.4853V27.43H73.4953V29.01H72.7753V27.43H69.1653V26.77H72.7753V25.65H70.1553L70.0053 25.03C70.392 24.55 70.7386 23.97 71.0453 23.29H69.5353V22.66H71.3053C71.4186 22.3467 71.5286 22.0267 71.6353 21.7L72.3253 21.86Z" fill="white"/>
<rect x="0.2" y="0.2" width="104.6" height="47.6" rx="3.8" stroke="white" stroke-opacity="0.8" stroke-width="0.4"/>
</svg>
