<svg width="107" height="48" viewBox="0 0 107 48" fill="none" xmlns="http://www.w3.org/2000/svg">
<rect width="107" height="48" rx="4" fill="white" fill-opacity="0.4"/>
<path d="M11.78 12.86H12.59V20H11.78V12.86ZM13.543 12.86H19.393V13.57H16.873V20H16.063V13.57H13.543V12.86ZM22.2545 14.89H22.9345V17.07H25.1145V17.75H22.9345V19.94H22.2545V17.75H20.0645V17.07H22.2545V14.89ZM29.4591 12.72C30.5325 12.72 31.3758 13.0767 31.9891 13.79C32.5758 14.4767 32.8691 15.36 32.8691 16.44C32.8691 17.5067 32.5758 18.3833 31.9891 19.07C31.3691 19.7833 30.5225 20.14 29.4491 20.14C28.3825 20.14 27.5391 19.7833 26.9191 19.07C26.3325 18.3967 26.0391 17.52 26.0391 16.44C26.0391 15.3533 26.3325 14.4733 26.9191 13.8C27.5391 13.08 28.3858 12.72 29.4591 12.72ZM29.4591 13.45C28.6325 13.45 27.9858 13.7333 27.5191 14.3C27.0791 14.84 26.8591 15.5533 26.8591 16.44C26.8591 17.32 27.0791 18.03 27.5191 18.57C27.9791 19.13 28.6225 19.41 29.4491 19.41C30.2691 19.41 30.9125 19.1367 31.3791 18.59C31.8258 18.0433 32.0491 17.3267 32.0491 16.44C32.0491 15.54 31.8258 14.8167 31.3791 14.27C30.9191 13.7233 30.2791 13.45 29.4591 13.45ZM33.4552 12.86H39.3052V13.57H36.7852V20H35.9752V13.57H33.4552V12.86ZM40.3266 12.26H43.2166V15.36H42.2866V16.96H43.3166V17.62H42.2866V19.49C42.7532 19.3367 43.1599 19.1967 43.5066 19.07V19.76C42.4732 20.14 41.3332 20.4833 40.0866 20.79L39.8866 20.12C40.0332 20.08 40.1699 20.05 40.2966 20.03V16.39H40.9366V19.87L41.6166 19.69V15.36H40.3266V12.26ZM42.5366 14.71V12.92H41.0066V14.71H42.5366ZM43.6866 12.93H45.5166C45.6766 12.5233 45.7899 12.1567 45.8566 11.83L46.4966 11.9C46.4166 12.2533 46.3199 12.5967 46.2066 12.93H48.6866V13.58H47.1166C47.5299 14.3933 48.1832 15.04 49.0766 15.52L48.7666 16.15C48.2199 15.83 47.7532 15.4567 47.3666 15.03V15.53H44.9666V15.04C44.5532 15.4867 44.0666 15.87 43.5066 16.19L43.1766 15.59C44.0632 15.0767 44.7399 14.4067 45.2066 13.58H43.6866V12.93ZM47.2566 14.91C46.9032 14.5167 46.6232 14.0733 46.4166 13.58H45.9366C45.7032 14.06 45.4166 14.5033 45.0766 14.91H47.2566ZM43.6966 16.5H48.6266V17.13H45.4566L45.1566 18.13H48.1766C48.1166 19.4833 47.9766 20.29 47.7566 20.55C47.5299 20.7967 47.1099 20.92 46.4966 20.92C46.2499 20.92 46.0299 20.9 45.8366 20.86L45.6066 20.25C45.8866 20.29 46.1366 20.31 46.3566 20.31C46.8032 20.31 47.0832 20.2267 47.1966 20.06C47.3032 19.8733 47.3799 19.44 47.4266 18.76H44.3166L44.7366 17.13H43.6966V16.5ZM50.0266 13.97H51.1066V11.91H51.8266V13.97H52.9666V14.67H51.8266V21H51.1066V14.67H50.0266V13.97ZM58.2766 15.66C58.5966 16.3667 58.8899 17.1467 59.1566 18L58.5966 18.25C58.3432 17.37 58.0499 16.5667 57.7166 15.84L58.2766 15.66ZM54.9766 11.91H55.6766V13.63H57.7066C57.7066 16.9167 57.6566 18.9467 57.5566 19.72C57.4632 20.5067 57.0332 20.9 56.2666 20.9L55.3966 20.86L55.2166 20.2C55.5766 20.22 55.8899 20.23 56.1566 20.23C56.5566 20.23 56.7932 19.9633 56.8666 19.43C56.9266 18.8767 56.9666 17.1767 56.9866 14.33H55.6766V14.5C55.6366 17.4667 54.8432 19.63 53.2966 20.99L52.7666 20.52C54.2199 19.2667 54.9566 17.26 54.9766 14.5V14.33H53.2766V13.63H54.9766V11.91ZM54.0366 15.76C53.7366 16.9733 53.3199 17.8933 52.7866 18.52L52.3066 18.06C52.8332 17.4 53.2166 16.5833 53.4566 15.61L54.0366 15.76ZM65.1566 11.79C65.8099 12.6433 66.2999 13.38 66.6266 14L66.0566 14.39C65.6899 13.7167 65.2099 12.98 64.6166 12.18L65.1566 11.79ZM68.4966 12.43C68.1699 14.7833 67.4932 16.7033 66.4666 18.19C67.2266 19.11 68.1332 19.8433 69.1866 20.39L68.7666 21.02C67.7199 20.4467 66.8099 19.6933 66.0366 18.76C65.2432 19.7333 64.2632 20.4867 63.0966 21.02L62.7066 20.41C63.8466 19.89 64.8032 19.1433 65.5766 18.17C64.6099 16.8433 63.8432 15.2033 63.2766 13.25L63.8966 12.91C64.3966 14.77 65.0966 16.33 65.9966 17.59C66.9099 16.2033 67.5166 14.4367 67.8166 12.29L68.4966 12.43ZM61.1366 11.93C61.7832 12.4433 62.3399 12.9567 62.8066 13.47L62.3166 13.97C61.9166 13.4767 61.3566 12.9533 60.6366 12.4L61.1366 11.93ZM59.9266 14.89H62.0866V19.21C62.4066 18.93 62.7432 18.6133 63.0966 18.26L63.2866 19.03C62.7066 19.5967 62.0932 20.1067 61.4466 20.56L61.1666 19.9C61.3199 19.78 61.3966 19.64 61.3966 19.48V15.58H59.9266V14.89ZM74.0866 11.83H74.8266V13.14H78.7566V13.84H74.8266V15.37H77.5166V16.01C76.9566 17.13 76.1466 18.09 75.0866 18.89C75.6266 19.19 76.1766 19.4533 76.7366 19.68C77.4232 19.94 78.1832 20.1733 79.0166 20.38L78.5966 21.01C77.7032 20.77 76.8866 20.4967 76.1466 20.19C75.5332 19.9233 74.9766 19.63 74.4766 19.31C73.3432 20.0233 71.9799 20.5967 70.3866 21.03L69.9766 20.39C71.5032 20.03 72.7999 19.53 73.8666 18.89C73.3266 18.47 72.8732 18.0267 72.5066 17.56C72.1399 17.1 71.8799 16.5933 71.7266 16.04H70.9566V15.37H74.0866V13.84H70.1966V13.14H74.0866V11.83ZM74.4666 18.5C75.4399 17.8133 76.1866 16.9933 76.7066 16.04H72.4366C72.6166 16.5733 72.8966 17.0467 73.2766 17.46C73.6166 17.8533 74.0132 18.2 74.4666 18.5ZM80.1566 20.89L80.0066 20.2C80.2732 20.2333 80.4966 20.25 80.6766 20.25C80.9166 20.25 81.0366 20.11 81.0366 19.83V17.4C80.7432 17.5267 80.3999 17.67 80.0066 17.83L79.8266 17.15C80.2332 17.0233 80.6366 16.8733 81.0366 16.7V14.36H79.9566V13.67H81.0366V11.85H81.7466V13.67H82.5766V14.36H81.7466V16.35C82.0466 16.19 82.3899 15.9833 82.7766 15.73V16.44C82.4232 16.6667 82.0799 16.8667 81.7466 17.04V20.01C81.7466 20.5967 81.4732 20.89 80.9266 20.89H80.1566ZM85.5366 11.8H86.2266V13.01H87.0766C87.3032 12.6367 87.4932 12.26 87.6466 11.88L88.2666 12.09C88.0932 12.4567 87.9199 12.7633 87.7466 13.01H88.7766V14.93H88.1066V13.63H83.6366V14.96H82.9566V13.01H83.9966C83.8499 12.7167 83.6699 12.4333 83.4566 12.16L84.0666 11.94C84.2799 12.26 84.4666 12.6167 84.6266 13.01H85.5366V11.8ZM84.1066 14.23H87.6466V16H84.1066V14.23ZM87.0566 15.48V14.76H84.7066V15.48H87.0566ZM88.5266 16.84C87.8332 16.9667 87.0666 17.0633 86.2266 17.13V17.82H88.3766V18.38H86.2266V19.01H88.9766V19.61H86.2266V20.17C86.2266 20.6967 85.9666 20.96 85.4466 20.96H84.4466L84.3166 20.34C84.6632 20.3733 84.9666 20.39 85.2266 20.39C85.4332 20.39 85.5366 20.2667 85.5366 20.02V19.61H82.7166V19.01H85.5366V18.38H83.2966V17.82H85.5366V17.17C84.7566 17.2033 84.0066 17.22 83.2866 17.22L83.0966 16.68C85.1699 16.6667 86.8766 16.5433 88.2166 16.31L88.5266 16.84ZM15.26 31.51C14.8533 31.69 14.3767 31.8833 13.83 32.09V35.06C13.83 35.6267 13.5367 35.91 12.95 35.91H11.9L11.74 35.21C12.1933 35.2367 12.5133 35.25 12.7 35.25C12.96 35.25 13.09 35.1233 13.09 34.87V32.35C12.35 32.5767 11.8333 32.73 11.54 32.81L11.36 32.13C11.9867 31.99 12.5633 31.8367 13.09 31.67V29.36H11.52V28.67H13.09V26.86H13.83V28.67H15.13V29.36H13.83V31.41C14.2833 31.23 14.76 31.0233 15.26 30.79V31.51ZM15.44 27.61H20.46V28.31H18.84V34.96C18.84 35.58 18.54 35.89 17.94 35.89H16.3L16.15 35.2C16.87 35.2267 17.3833 35.24 17.69 35.24C17.9633 35.24 18.1 35.0867 18.1 34.78V28.31H15.44V27.61ZM22.26 26.99C22.9533 27.51 23.5333 28.03 24 28.55L23.49 29.05C23.0633 28.5433 22.49 28.0133 21.77 27.46L22.26 26.99ZM28.11 35.82C27.77 35.82 27.1733 35.8133 26.32 35.8C25.6667 35.7867 25.14 35.7267 24.74 35.62C24.34 35.5 23.9833 35.2567 23.67 34.89C23.53 34.7233 23.4 34.64 23.28 34.64C23.04 34.64 22.6433 35.1 22.09 36.02L21.55 35.53C22.0833 34.69 22.5533 34.18 22.96 34V30.96H21.54V30.3H23.63V34.04C23.7167 34.1067 23.8 34.1833 23.88 34.27C24.12 34.5567 24.38 34.7667 24.66 34.9C24.98 35.04 25.4367 35.12 26.03 35.14C26.7367 35.1533 27.3967 35.16 28.01 35.16C28.31 35.16 28.7867 35.1533 29.44 35.14C29.98 35.1267 30.35 35.1133 30.55 35.1L30.38 35.82H28.11ZM26.32 27.95C26.7733 28.2233 27.1567 28.4733 27.47 28.7C28.0033 28.42 28.4833 28.1167 28.91 27.79H24.47V27.18H29.88V27.7C29.28 28.22 28.63 28.67 27.93 29.05L28.09 29.18H30.07V33.65C30.07 34.1633 29.79 34.42 29.23 34.42H28.4L28.24 33.81L29.03 33.84C29.27 33.84 29.39 33.7267 29.39 33.5V32.75H27.71V34.47H27.04V32.75H25.37V34.5H24.69V29.18H27.19C26.8033 28.9067 26.3667 28.64 25.88 28.38L26.32 27.95ZM25.37 31.28V32.16H27.04V31.28H25.37ZM27.71 31.28V32.16H29.39V31.28H27.71ZM29.39 30.68V29.78H27.71V30.68H29.39ZM27.04 30.68V29.78H25.37V30.68H27.04ZM31.75 27.35H40.25V28.06H36.99C36.8167 28.46 36.61 28.8567 36.37 29.25V36.02H35.63V30.31C34.69 31.4767 33.46 32.5167 31.94 33.43L31.47 32.8C33.7367 31.4933 35.31 29.9133 36.19 28.06H31.75V27.35ZM37.63 30.04C38.77 30.94 39.7333 31.85 40.52 32.77L39.97 33.33C39.27 32.45 38.3167 31.5167 37.11 30.53L37.63 30.04ZM47.81 35.96L47.61 35.24L48.91 35.27C49.1633 35.27 49.29 35.12 49.29 34.82V27.92H42.71V35.99H41.99V27.22H50.01V34.98C50.01 35.6333 49.72 35.96 49.14 35.96H47.81ZM43.44 29.07H48.57V29.74H43.44V29.07ZM44 30.82H48.01V34.04H44V30.82ZM47.31 33.4V31.47H44.7V33.4H47.31ZM52.57 26.98C53.23 27.4933 53.7867 28 54.24 28.5L53.75 29C53.33 28.5 52.77 27.9833 52.07 27.45L52.57 26.98ZM51.45 29.91H53.54V34.35C53.9533 34.0033 54.34 33.66 54.7 33.32L54.9 34.08C54.2867 34.6533 53.62 35.1767 52.9 35.65L52.62 35.01C52.7667 34.8633 52.84 34.7133 52.84 34.56V30.6H51.45V29.91ZM55 31.08H59.76V31.74C59.44 32.6867 58.9167 33.4967 58.19 34.17C58.8567 34.63 59.6867 35.0433 60.68 35.41L60.29 36.03C59.2167 35.5967 58.3433 35.12 57.67 34.6C56.89 35.1867 55.9033 35.6633 54.71 36.03L54.31 35.42C55.4233 35.0867 56.3533 34.6567 57.1 34.13C56.3467 33.4367 55.83 32.6533 55.55 31.78H55V31.08ZM56.23 31.78C56.49 32.5067 56.95 33.1533 57.61 33.72C58.2567 33.1533 58.7367 32.5067 59.05 31.78H56.23ZM55.77 27.22H59.13V29.38C59.13 29.6333 59.26 29.76 59.52 29.76H60.44V30.42H59.34C58.7267 30.42 58.42 30.1233 58.42 29.53V27.9H56.48V28.25C56.48 29.3033 55.9667 30.1233 54.94 30.71L54.46 30.16C55.3333 29.7267 55.77 29.1167 55.77 28.33V27.22ZM69.16 31.64V36H68.47V35.56H63.55V36H62.86V31.64H69.16ZM63.55 34.94H65.66V33.88H63.55V34.94ZM66.34 34.94H68.47V33.88H66.34V34.94ZM63.55 33.3H65.66V32.24H63.55V33.3ZM66.34 32.24V33.3H68.47V32.24H66.34ZM65.38 26.87C65.26 27.07 65.1033 27.2933 64.91 27.54H68.98V28.09C68.3733 28.8367 67.6233 29.4833 66.73 30.03C67.79 30.4833 69.0667 30.81 70.56 31.01L70.25 31.65C68.6033 31.3967 67.2033 30.9833 66.05 30.41C64.83 31.0167 63.3933 31.4567 61.74 31.73L61.43 31.1C62.91 30.8933 64.2167 30.5367 65.35 30.03C64.7567 29.6767 64.2267 29.26 63.76 28.78C63.3467 29.16 62.8767 29.5167 62.35 29.85L61.89 29.29C63.0167 28.6367 63.9433 27.7767 64.67 26.71L65.38 26.87ZM64.19 28.37C64.6833 28.87 65.2933 29.3133 66.02 29.7C66.82 29.26 67.51 28.75 68.09 28.17H64.39L64.19 28.37Z" fill="white"/>
<rect x="0.2" y="0.2" width="106.6" height="47.6" rx="3.8" stroke="white" stroke-opacity="0.8" stroke-width="0.4"/>
</svg>
