<svg width="107" height="48" viewBox="0 0 107 48" fill="none" xmlns="http://www.w3.org/2000/svg">
<rect width="107" height="48" rx="4" fill="white" fill-opacity="0.4"/>
<path d="M20.22 11.86H21.08L25.12 17.67H25.15V11.86H25.97V19H25.13L21.07 13.13H21.04V19H20.22V11.86ZM30.5275 11.72C31.6008 11.72 32.4442 12.0767 33.0575 12.79C33.6442 13.4767 33.9375 14.36 33.9375 15.44C33.9375 16.5067 33.6442 17.3833 33.0575 18.07C32.4375 18.7833 31.5908 19.14 30.5175 19.14C29.4508 19.14 28.6075 18.7833 27.9875 18.07C27.4008 17.3967 27.1075 16.52 27.1075 15.44C27.1075 14.3533 27.4008 13.4733 27.9875 12.8C28.6075 12.08 29.4542 11.72 30.5275 11.72ZM30.5275 12.45C29.7008 12.45 29.0542 12.7333 28.5875 13.3C28.1475 13.84 27.9275 14.5533 27.9275 15.44C27.9275 16.32 28.1475 17.03 28.5875 17.57C29.0475 18.13 29.6908 18.41 30.5175 18.41C31.3375 18.41 31.9808 18.1367 32.4475 17.59C32.8942 17.0433 33.1175 16.3267 33.1175 15.44C33.1175 14.54 32.8942 13.8167 32.4475 13.27C31.9875 12.7233 31.3475 12.45 30.5275 12.45ZM35.0735 11.86H37.6335C38.7668 11.86 39.6202 12.1867 40.1935 12.84C40.7268 13.4467 40.9935 14.31 40.9935 15.43C40.9935 16.53 40.7068 17.3933 40.1335 18.02C39.5335 18.6733 38.6735 19 37.5535 19H35.0735V11.86ZM35.8935 12.57V18.29H37.4135C38.3402 18.29 39.0402 18.0433 39.5135 17.55C39.9602 17.0633 40.1835 16.3567 40.1835 15.43C40.1835 14.4767 39.9768 13.7667 39.5635 13.3C39.1235 12.8133 38.4368 12.57 37.5035 12.57H35.8935ZM42.1341 11.86H47.1941V12.57H42.9541V14.96H46.9541V15.67H42.9541V18.29H47.3641V19H42.1341V11.86ZM50.4713 13.89H51.1513V16.07H53.3313V16.75H51.1513V18.94H50.4713V16.75H48.2813V16.07H50.4713V13.89ZM54.5559 11.86H57.6359C58.3493 11.86 58.9093 12.0233 59.3159 12.35C59.7426 12.6967 59.9559 13.1967 59.9559 13.85C59.9559 14.2433 59.8459 14.5967 59.6259 14.91C59.3926 15.2233 59.0693 15.43 58.6559 15.53V15.55C59.3359 15.7033 59.7159 16.1367 59.7959 16.85L59.9059 17.95C59.9459 18.3833 60.0726 18.7333 60.2859 19H59.3959C59.2293 18.7533 59.1326 18.4367 59.1059 18.05L59.0159 17.1C58.9759 16.6733 58.8259 16.37 58.5659 16.19C58.3326 16.0167 57.9893 15.93 57.5359 15.93H55.3759V19H54.5559V11.86ZM55.3759 12.57V15.22H57.5359C58.0559 15.22 58.4593 15.0967 58.7459 14.85C58.9993 14.6167 59.1259 14.2933 59.1259 13.88C59.1259 13.44 59.0026 13.1133 58.7559 12.9C58.4959 12.68 58.0893 12.57 57.5359 12.57H55.3759ZM61.3138 11.86H66.3738V12.57H62.1338V14.96H66.1338V15.67H62.1338V18.29H66.5438V19H61.3138V11.86ZM69.7709 11.86H70.7209L73.5309 19H72.6409L71.8809 17H68.6009L67.8409 19H66.9609L69.7709 11.86ZM68.8609 16.31H71.6209L70.2709 12.74H70.2309L68.8609 16.31ZM77.3332 11.72C78.1265 11.72 78.7932 11.93 79.3332 12.35C79.8732 12.77 80.1932 13.3367 80.2932 14.05H79.5032C79.4032 13.5367 79.1499 13.1367 78.7432 12.85C78.3565 12.5833 77.8832 12.45 77.3232 12.45C76.4965 12.45 75.8565 12.74 75.4032 13.32C74.9832 13.86 74.7732 14.5733 74.7732 15.46C74.7732 16.36 74.9799 17.0667 75.3932 17.58C75.8332 18.1333 76.4699 18.41 77.3032 18.41C77.8699 18.41 78.3532 18.26 78.7532 17.96C79.1799 17.6333 79.4632 17.1633 79.6032 16.55H80.3932C80.2332 17.39 79.8599 18.0367 79.2732 18.49C78.7199 18.9233 78.0632 19.14 77.3032 19.14C76.1965 19.14 75.3465 18.7733 74.7532 18.04C74.2199 17.3867 73.9532 16.5267 73.9532 15.46C73.9532 14.3933 74.2265 13.5233 74.7732 12.85C75.3665 12.0967 76.2199 11.72 77.3332 11.72ZM80.9786 11.86H86.8286V12.57H84.3086V19H83.4986V12.57H80.9786V11.86ZM27 31.08L26.82 31.8C26.9933 32.86 27.2167 33.77 27.49 34.53C27.7833 33.55 27.9467 32.4 27.98 31.08H27ZM27.2 35.33C26.92 34.5967 26.69 33.76 26.51 32.82C26.3367 33.28 26.1467 33.7033 25.94 34.09L25.54 33.59C26.1267 32.39 26.5233 30.79 26.73 28.79L27.36 28.9C27.3 29.3467 27.2233 29.85 27.13 30.41H29V31.08H28.6C28.56 32.7867 28.3067 34.23 27.84 35.41C28.2133 36.23 28.6533 36.87 29.16 37.33L28.75 37.94C28.2767 37.4733 27.8667 36.8667 27.52 36.12C27.14 36.8533 26.67 37.47 26.11 37.97L25.73 37.37C26.3433 36.8367 26.8333 36.1567 27.2 35.33ZM24.38 36.79C24.4867 36.7233 24.55 36.63 24.57 36.51V34.69H23.51V35.14C23.49 36.38 23.1733 37.3133 22.56 37.94L22.03 37.48C22.5633 36.94 22.8333 36.16 22.84 35.14V34.04H25.21V36.28C25.5233 36 25.8133 35.7267 26.08 35.46L26.23 36.07C25.7233 36.6033 25.2067 37.0433 24.68 37.39L24.38 36.79ZM23.8 28.83H24.41V31.1H25.1V29.37H25.69V31.72H22.49V29.37H23.09V31.1H23.8V28.83ZM22.13 29.15C21.7033 30.2167 21.0133 31.1667 20.06 32L19.84 31.3C20.6067 30.58 21.1633 29.7667 21.51 28.86L22.13 29.15ZM22.17 31.83C22.0233 32.23 21.8533 32.5933 21.66 32.92V38.02H20.99V33.89C20.73 34.21 20.43 34.5233 20.09 34.83L19.88 34.14C20.66 33.38 21.2233 32.5133 21.57 31.54L22.17 31.83ZM22.48 32.61H25.6V33.25H22.48V32.61ZM31.32 32.25V33.92H32.93V32.25H31.32ZM32.93 31.6V29.91H31.32V31.6H32.93ZM31.31 34.57C31.25 35.9633 31.0133 37.1133 30.6 38.02L30.06 37.52C30.4533 36.6267 30.6567 35.4733 30.67 34.06V29.26H33.59V37.05C33.59 37.6633 33.31 37.97 32.75 37.97H31.95L31.78 37.33C32.1533 37.3567 32.41 37.37 32.55 37.37C32.8033 37.37 32.93 37.1867 32.93 36.82V34.57H31.31ZM35.11 33.58V38.01H34.43V29.25H38.48C38.48 30.49 38.42 31.31 38.3 31.71C38.18 32.1233 37.8067 32.33 37.18 32.33H36.37L36.18 31.71L36.85 31.72C37.07 31.72 37.2467 31.7033 37.38 31.67C37.5 31.63 37.59 31.5333 37.65 31.38C37.7167 31.1733 37.76 30.6833 37.78 29.91H35.11V32.94H38.51V33.55C38.3233 34.5767 37.9967 35.4533 37.53 36.18C37.97 36.6133 38.5 37.0067 39.12 37.36L38.76 37.97C38.1333 37.61 37.5867 37.2 37.12 36.74C36.68 37.2533 36.1633 37.6667 35.57 37.98L35.19 37.4C35.7567 37.0933 36.24 36.7 36.64 36.22C36 35.44 35.57 34.56 35.35 33.58H35.11ZM35.97 33.58C36.1767 34.3467 36.5367 35.04 37.05 35.66C37.4167 35.0667 37.69 34.3733 37.87 33.58H35.97ZM43.67 28.9C43.57 29.14 43.4433 29.3933 43.29 29.66H47.65V30.24C47.01 30.98 46.23 31.61 45.31 32.13C46.4433 32.61 47.7033 32.92 49.09 33.06L48.76 33.73C47.18 33.55 45.77 33.15 44.53 32.53C43.3033 33.0967 41.88 33.5033 40.26 33.75L39.93 33.07C41.3767 32.87 42.65 32.55 43.75 32.11C43.2033 31.79 42.6833 31.4133 42.19 30.98C41.7967 31.3333 41.38 31.6433 40.94 31.91L40.5 31.33C41.7133 30.6367 42.5267 29.7933 42.94 28.8L43.67 28.9ZM44.52 31.76C45.3133 31.3667 46.0133 30.8933 46.62 30.34H42.8L42.67 30.5C43.2233 30.9867 43.84 31.4067 44.52 31.76ZM44.62 33.25C44.62 33.61 44.5867 33.99 44.52 34.39H48.04C48.02 36.0833 47.8667 37.0933 47.58 37.42C47.2867 37.7533 46.7867 37.92 46.08 37.92C45.9133 37.92 45.5233 37.9067 44.91 37.88L44.73 37.23L45.91 37.28C46.5033 37.2733 46.88 37.1467 47.04 36.9C47.1933 36.66 47.2833 36.04 47.31 35.04H44.35C44.2767 35.2867 44.17 35.5367 44.03 35.79C43.5167 36.6967 42.3433 37.44 40.51 38.02L40.03 37.43C41.6767 36.95 42.76 36.3433 43.28 35.61C43.42 35.4033 43.5233 35.2133 43.59 35.04H40.61V34.39H43.79C43.87 34.03 43.91 33.65 43.91 33.25H44.62Z" fill="white"/>
<rect x="0.2" y="0.2" width="106.6" height="47.6" rx="3.8" stroke="white" stroke-opacity="0.8" stroke-width="0.4"/>
</svg>
