<svg width="105" height="48" viewBox="0 0 105 48" fill="none" xmlns="http://www.w3.org/2000/svg">
<rect width="105" height="48" rx="4" fill="white" fill-opacity="0.4"/>
<path d="M20.81 20.86H21.76L24.57 28H23.68L22.92 26H19.64L18.88 28H18L20.81 20.86ZM19.9 25.31H22.66L21.31 21.74H21.27L19.9 25.31ZM28.3423 20.72C29.2423 20.72 29.9523 20.9367 30.4723 21.37C30.9723 21.7767 31.2856 22.37 31.4123 23.15H30.5923C30.4856 22.6167 30.2456 22.2033 29.8723 21.91C29.4856 21.6033 28.9756 21.45 28.3423 21.45C27.5689 21.45 26.9523 21.7233 26.4923 22.27C26.0389 22.8033 25.8123 23.5333 25.8123 24.46C25.8123 25.36 26.0323 26.07 26.4723 26.59C26.9456 27.1433 27.6456 27.42 28.5723 27.42C28.9323 27.42 29.3056 27.3667 29.6923 27.26C30.0256 27.1667 30.3256 27.0333 30.5923 26.86V25.04H28.3523V24.33H31.4023V27.25C31.0756 27.5167 30.6589 27.7333 30.1523 27.9C29.6323 28.06 29.0789 28.14 28.4923 28.14C27.3589 28.14 26.4823 27.78 25.8623 27.06C25.2823 26.3867 24.9923 25.52 24.9923 24.46C24.9923 23.3933 25.2789 22.52 25.8523 21.84C26.4589 21.0933 27.2889 20.72 28.3423 20.72ZM32.8327 20.86H33.6427V28H32.8327V20.86ZM35.1458 20.86H35.9558V27.29H40.0858V28H35.1458V20.86ZM41.0247 20.86H46.0847V21.57H41.8447V23.96H45.8447V24.67H41.8447V27.29H46.2547V28H41.0247V20.86ZM48.2419 19.98C48.9019 20.4933 49.4585 21 49.9119 21.5L49.4219 22C49.0019 21.5 48.4419 20.9833 47.7419 20.45L48.2419 19.98ZM47.1219 22.91H49.2119V27.35C49.6252 27.0033 50.0119 26.66 50.3719 26.32L50.5719 27.08C49.9585 27.6533 49.2919 28.1767 48.5719 28.65L48.2919 28.01C48.4385 27.8633 48.5119 27.7133 48.5119 27.56V23.6H47.1219V22.91ZM50.6719 24.08H55.4319V24.74C55.1119 25.6867 54.5885 26.4967 53.8619 27.17C54.5285 27.63 55.3585 28.0433 56.3519 28.41L55.9619 29.03C54.8885 28.5967 54.0152 28.12 53.3419 27.6C52.5619 28.1867 51.5752 28.6633 50.3819 29.03L49.9819 28.42C51.0952 28.0867 52.0252 27.6567 52.7719 27.13C52.0185 26.4367 51.5019 25.6533 51.2219 24.78H50.6719V24.08ZM51.9019 24.78C52.1619 25.5067 52.6219 26.1533 53.2819 26.72C53.9285 26.1533 54.4085 25.5067 54.7219 24.78H51.9019ZM51.4419 20.22H54.8019V22.38C54.8019 22.6333 54.9319 22.76 55.1919 22.76H56.1119V23.42H55.0119C54.3985 23.42 54.0919 23.1233 54.0919 22.53V20.9H52.1519V21.25C52.1519 22.3033 51.6385 23.1233 50.6119 23.71L50.1319 23.16C51.0052 22.7267 51.4419 22.1167 51.4419 21.33V20.22ZM60.2519 22.83H62.9619V19.82H63.7019V22.83H66.2719V23.55H63.7019V29.02H62.9619V23.55H60.2519V22.83ZM58.2919 19.93C58.9785 20.4433 59.5485 20.9567 60.0019 21.47L59.5119 21.97C59.0985 21.4833 58.5252 20.9667 57.7919 20.42L58.2919 19.93ZM57.1219 22.89H59.2819V27.34C59.7485 26.9467 60.1419 26.6 60.4619 26.3L60.6419 27.04C60.0419 27.62 59.3752 28.1533 58.6419 28.64L58.3619 27.99C58.5152 27.87 58.5919 27.73 58.5919 27.57V23.58H57.1219V22.89ZM74.4019 19.83H75.1219V29.01H74.4019V19.83ZM68.5219 23.12L68.1719 24.78H72.0619C72.0619 26.4333 71.9919 27.52 71.8519 28.04C71.7119 28.6 71.0952 28.9 70.0019 28.94C69.8019 28.94 69.4885 28.9267 69.0619 28.9L68.8819 28.23C69.3085 28.2567 69.6285 28.27 69.8419 28.27C70.6085 28.27 71.0519 28.0933 71.1719 27.74C71.2852 27.36 71.3419 26.59 71.3419 25.43H67.4019L67.9219 22.45H71.2519V20.89H67.6119V20.23H71.9619V23.12H68.5219ZM82.7119 21.98C82.5585 22.22 82.3785 22.4533 82.1719 22.68L81.7919 22.17C82.3452 21.4967 82.7185 20.69 82.9119 19.75L83.5719 19.84C83.5119 20.12 83.4419 20.3767 83.3619 20.61H85.9119V21.21H85.3619C85.2152 21.9567 84.9285 22.5833 84.5019 23.09C84.9485 23.3767 85.5219 23.63 86.2219 23.85L85.8919 24.43C85.1385 24.1767 84.5219 23.8767 84.0419 23.53C83.5619 23.9033 82.9852 24.1733 82.3119 24.34L82.0419 23.76C82.6219 23.62 83.1185 23.4067 83.5319 23.12C83.1652 22.7733 82.8919 22.3933 82.7119 21.98ZM83.1319 21.21L83.0619 21.35C83.2085 21.8567 83.5152 22.3133 83.9819 22.72C84.3552 22.3 84.6019 21.7967 84.7219 21.21H83.1319ZM85.0619 25C84.2152 25.12 83.2385 25.21 82.1319 25.27V25.93H85.2219V26.46H82.1319V27.07H86.0319V27.67H82.1319V28.25C82.1319 28.7833 81.8485 29.05 81.2819 29.05H80.0819L79.9419 28.43C80.4619 28.4567 80.8352 28.47 81.0619 28.47C81.3152 28.47 81.4419 28.34 81.4419 28.08V27.67H77.3319V27.07H81.4419V26.46H78.0319V25.93H81.4419V25.3C80.4619 25.34 79.3985 25.36 78.2519 25.36L78.0719 24.82C80.7052 24.82 82.9252 24.6867 84.7319 24.42L85.0619 25ZM78.6019 19.8H79.2019V20.22H80.2919V19.79H80.8919V20.22H82.0719V20.78H80.8919V21.26H80.2919V20.78H79.2019V21.28H78.6319C78.6052 21.3467 78.5719 21.4467 78.5319 21.58H81.7219C81.6952 22.8733 81.6552 23.6367 81.6019 23.87C81.5419 24.0833 81.4352 24.23 81.2819 24.31C81.1352 24.39 80.8019 24.43 80.2819 24.43H79.9119L79.7819 24.02H77.9119V22.66C77.7319 22.84 77.5952 22.97 77.5019 23.05L77.1119 22.58C77.5785 22.2 77.8985 21.6933 78.0719 21.06L78.6019 21.15V20.78H77.3419V20.22H78.6019V19.8ZM80.3519 23.91H80.4419C80.6819 23.91 80.8352 23.88 80.9019 23.82C80.9685 23.7667 81.0119 23.6633 81.0319 23.51C81.0519 23.35 81.0719 22.88 81.0919 22.1H78.3019C78.1685 22.32 78.0719 22.4633 78.0119 22.53H80.3519V23.91ZM79.7819 23.57V22.99H78.4819V23.57H79.7819Z" fill="white"/>
<rect x="0.2" y="0.2" width="104.6" height="47.6" rx="3.8" stroke="white" stroke-opacity="0.8" stroke-width="0.4"/>
</svg>
