<svg width="107" height="48" viewBox="0 0 107 48" fill="none" xmlns="http://www.w3.org/2000/svg">
<rect width="107" height="48" rx="4" fill="white" fill-opacity="0.4"/>
<path d="M9.31 11.86H10.26L13.07 19H12.18L11.42 17H8.14L7.38 19H6.5L9.31 11.86ZM8.4 16.31H11.16L9.81 12.74H9.77L8.4 16.31ZM13.7923 11.86H16.7123C18.3523 11.86 19.1723 12.56 19.1723 13.96C19.1723 15.3733 18.3489 16.08 16.7023 16.08H14.6123V19H13.7923V11.86ZM14.6123 12.57V15.37H16.6623C17.2289 15.37 17.6556 15.2533 17.9423 15.02C18.2156 14.7867 18.3523 14.4333 18.3523 13.96C18.3523 13.4733 18.2123 13.1267 17.9323 12.92C17.6589 12.6867 17.2356 12.57 16.6623 12.57H14.6123ZM20.2083 11.86H23.1283C24.7683 11.86 25.5883 12.56 25.5883 13.96C25.5883 15.3733 24.7649 16.08 23.1183 16.08H21.0283V19H20.2083V11.86ZM21.0283 12.57V15.37H23.0783C23.6449 15.37 24.0716 15.2533 24.3583 15.02C24.6316 14.7867 24.7683 14.4333 24.7683 13.96C24.7683 13.4733 24.6283 13.1267 24.3483 12.92C24.0749 12.6867 23.6516 12.57 23.0783 12.57H21.0283ZM28.5943 13.89H29.2743V16.07H31.4543V16.75H29.2743V18.94H28.5943V16.75H26.4043V16.07H28.5943V13.89ZM32.009 11.86H32.929L34.499 17.85H34.539L36.169 11.86H37.059L38.679 17.85H38.719L40.289 11.86H41.209L39.159 19H38.249L36.629 13.05H36.599L34.969 19H34.059L32.009 11.86ZM41.9759 11.86H47.0359V12.57H42.7959V14.96H46.7959V15.67H42.7959V18.29H47.2059V19H41.9759V11.86ZM48.343 11.86H51.533C52.1997 11.86 52.7264 12.02 53.113 12.34C53.493 12.66 53.683 13.1 53.683 13.66C53.683 14.06 53.5764 14.4067 53.363 14.7C53.143 14.96 52.853 15.15 52.493 15.27C52.953 15.35 53.3164 15.5433 53.583 15.85C53.8497 16.1567 53.983 16.5433 53.983 17.01C53.983 17.71 53.7364 18.23 53.243 18.57C52.8164 18.8567 52.2397 19 51.513 19H48.343V11.86ZM49.163 12.55V14.98H51.333C51.8264 14.98 52.2064 14.8767 52.473 14.67C52.7397 14.4567 52.873 14.1467 52.873 13.74C52.873 13.34 52.743 13.04 52.483 12.84C52.2297 12.6467 51.8497 12.55 51.343 12.55H49.163ZM49.163 15.66V18.31H51.443C51.923 18.31 52.3197 18.2167 52.633 18.03C52.9864 17.81 53.163 17.4667 53.163 17C53.163 16.5467 53.0097 16.2067 52.703 15.98C52.423 15.7667 52.003 15.66 51.443 15.66H49.163ZM57.0806 13.89H57.7606V16.07H59.9406V16.75H57.7606V18.94H57.0806V16.75H54.8906V16.07H57.0806V13.89ZM62.6753 18.87H66.8453C67.4653 17.4433 68.0053 15.6867 68.4653 13.6L69.1753 13.79C68.742 15.7367 68.2253 17.43 67.6253 18.87H69.7353V19.57H62.6753V18.87ZM63.7653 14.09C64.1586 15.1367 64.5186 16.36 64.8453 17.76L64.1653 17.93C63.8853 16.63 63.542 15.4167 63.1353 14.29L63.7653 14.09ZM65.6953 13.38C66.0286 14.4667 66.3386 15.73 66.6253 17.17L65.9353 17.33C65.7153 16.03 65.4253 14.78 65.0653 13.58L65.6953 13.38ZM65.7053 10.75C65.8986 11.07 66.0753 11.4167 66.2353 11.79H69.8953V12.49H62.4853V14.72C62.4453 16.9267 62.102 18.6867 61.4553 20L60.8653 19.47C61.432 18.3167 61.7253 16.7333 61.7453 14.72V11.79H65.4553C65.2953 11.47 65.1153 11.17 64.9153 10.89L65.7053 10.75ZM72.5753 14.32V16.07H75.1153V14.32H72.5753ZM72.5353 16.73C72.422 18.0167 72.0486 19.0767 71.4153 19.91L70.8653 19.42C71.5053 18.5267 71.8353 17.3967 71.8553 16.03V11.23H79.3053V18.72C79.3053 19.42 78.9553 19.77 78.2553 19.77H77.1053L76.9153 19.06C77.4486 19.0867 77.8186 19.1 78.0253 19.1C78.392 19.1 78.5753 18.89 78.5753 18.47V16.73H75.8553V19.66H75.1153V16.73H72.5353ZM78.5753 16.07V14.32H75.8553V16.07H78.5753ZM78.5753 13.65V11.93H75.8553V13.65H78.5753ZM75.1153 11.93H72.5753V13.65H75.1153V11.93ZM83.1153 13.63H83.8253V15.1H85.0853V15.75H83.8253V17.1C84.392 16.9867 84.862 16.8833 85.2353 16.79V17.48C84.8886 17.5733 84.4186 17.68 83.8253 17.8V20H83.1153V17.93C82.442 18.0433 81.7586 18.1433 81.0653 18.23L80.9753 17.53C81.7553 17.4367 82.4686 17.3367 83.1153 17.23V15.75H81.2853L81.1353 15.11C81.422 14.51 81.6886 13.78 81.9353 12.92H80.9953V12.22H82.1253C82.292 11.5 82.3953 11.0367 82.4353 10.83L83.1253 10.94C82.9653 11.66 82.8686 12.0867 82.8353 12.22H85.2553V12.92H82.6453C82.392 13.7733 82.1386 14.5 81.8853 15.1H83.1153V13.63ZM86.9453 10.86C86.8786 11.38 86.792 11.8867 86.6853 12.38H89.7953V12.84C89.602 13.76 89.3653 14.6167 89.0853 15.41L88.3653 15.21C88.6453 14.5567 88.872 13.8433 89.0453 13.07H86.5153C86.2753 13.8633 85.9753 14.51 85.6153 15.01L85.0253 14.59C85.652 13.6567 86.0553 12.3767 86.2353 10.75L86.9453 10.86ZM87.7553 13.74C87.7553 14.3667 87.722 14.9967 87.6553 15.63C88.1353 17.2167 88.9453 18.4767 90.0853 19.41L89.5753 20C88.6486 19.1467 87.9386 18.1067 87.4453 16.88L87.3953 17.09C87.0753 18.29 86.3553 19.27 85.2353 20.03L84.7553 19.45C85.722 18.79 86.3653 17.96 86.6853 16.96C86.932 16.1067 87.0586 15.0333 87.0653 13.74H87.7553ZM93.7453 11.08C93.4853 11.8667 93.1553 12.6167 92.7553 13.33V20.01H92.0453V14.43C91.7253 14.87 91.3753 15.29 90.9953 15.69L90.7653 14.92C91.812 13.7333 92.5786 12.35 93.0653 10.77L93.7453 11.08ZM95.4553 11.52C95.3753 12.0333 95.2653 12.5067 95.1253 12.94H96.5953V10.86H97.3153V12.94H99.6153V13.64H97.3153V16.05H99.9853V16.74H97.3153V19.96H96.5953V16.74H93.6553V16.05H96.5953V13.64H94.8953C94.6486 14.3 94.3386 14.89 93.9653 15.41L93.5053 14.81C94.112 13.8967 94.5253 12.77 94.7453 11.43L95.4553 11.52ZM11.76 28.86C13.0067 30.1667 14.4567 31.2033 16.11 31.97L15.75 32.61C14.0967 31.81 12.68 30.7767 11.5 29.51C10.4133 30.7167 8.98333 31.7667 7.21 32.66L6.86 32.03C8.61333 31.1833 10.0733 30.1267 11.24 28.86H11.76ZM8.71 32.02H14.29V32.71H11.87V34.45H14.76V35.14H11.87V36.99H15.67V37.7H7.34V36.99H11.13V35.14H8.23V34.45H11.13V32.71H8.71V32.02ZM20.21 36.75C19.2967 37.09 18.25 37.37 17.07 37.59L16.97 36.84C18.17 36.6467 19.25 36.3733 20.21 36.02V36.75ZM19.28 29.06C18.7933 30.3133 18.29 31.32 17.77 32.08C18.15 32.0333 18.58 31.9667 19.06 31.88C19.18 31.64 19.39 31.2033 19.69 30.57L20.32 30.8C19.4267 32.6333 18.6933 33.9233 18.12 34.67C18.7 34.5233 19.2633 34.3433 19.81 34.13V34.78C18.9167 35.1133 18.0733 35.34 17.28 35.46L17.09 34.8C17.21 34.7533 17.3167 34.6867 17.41 34.6C17.7767 34.1933 18.22 33.5 18.74 32.52C18.0067 32.6533 17.4567 32.7467 17.09 32.8L16.92 32.14C17.0333 32.1 17.13 32.0133 17.21 31.88C17.7367 31 18.2033 29.9733 18.61 28.8L19.28 29.06ZM22.26 34.18C23.26 34.4933 24.1733 34.87 25 35.31L24.64 35.86C23.76 35.3933 22.8433 35.0167 21.89 34.73L22.26 34.18ZM21.05 35.88C22.6833 36.3067 24.1433 36.8133 25.43 37.4L25.05 38C23.61 37.3533 22.1433 36.8467 20.65 36.48L21.05 35.88ZM22.73 28.89C22.6367 29.21 22.5367 29.5067 22.43 29.78H25.3V30.37C24.8667 31.19 24.3533 31.9033 23.76 32.51C24.5 33.03 25.2933 33.4633 26.14 33.81L25.77 34.46C24.8633 34.0667 24.0267 33.5733 23.26 32.98C22.4333 33.6667 21.47 34.2 20.37 34.58L20.02 33.94C21.0267 33.6267 21.9233 33.1567 22.71 32.53C22.29 32.1767 21.8933 31.7833 21.52 31.35C21.28 31.6567 21.0033 31.9567 20.69 32.25L20.24 31.66C21.1 30.88 21.6867 29.9267 22 28.8L22.73 28.89ZM23.21 32.09C23.6767 31.63 24.1 31.0933 24.48 30.48H22.1L21.9 30.82C22.2733 31.26 22.71 31.6833 23.21 32.09ZM26.93 30.5H28.24C28.0933 29.94 27.94 29.4633 27.78 29.07L28.5 28.95C28.6333 29.39 28.7733 29.9067 28.92 30.5H30.09V31.18H26.93V30.5ZM27.75 31.77C27.9567 32.8967 28.1467 34.21 28.32 35.71L27.73 35.86C27.5833 34.5067 27.3933 33.2067 27.16 31.96L27.75 31.77ZM30.08 36.49C29.2067 36.83 28.21 37.1267 27.09 37.38L26.91 36.67C27.51 36.57 28.0867 36.44 28.64 36.28C28.8733 34.8467 29.0467 33.3 29.16 31.64L29.81 31.73C29.6967 33.23 29.5133 34.6833 29.26 36.09C29.8733 35.87 30.1467 35.7733 30.08 35.8V36.49ZM34.83 30.77V29.24H35.51V31.4H30.75V29.24H31.44V30.77H32.77V28.85H33.47V30.77H34.83ZM30.32 32.24H36.01V32.9H33.38C33.3133 33.2133 33.2167 33.5333 33.09 33.86H35.72V37.21C35.72 37.71 35.51 37.96 35.09 37.96H34.63L34.46 37.31L34.87 37.34C35.0033 37.34 35.07 37.25 35.07 37.07V34.5H34.17V37.8H33.56V34.5H32.75V37.81H32.14V34.5H31.26V37.96H30.61V33.86H32.39C32.5233 33.52 32.6167 33.2 32.67 32.9H30.32V32.24ZM42.44 34.2C42.2533 34.56 42.0467 34.8633 41.82 35.11L41.4 34.6C41.84 34.12 42.1333 33.4833 42.28 32.69L42.88 32.8C42.82 33.0667 42.76 33.3167 42.7 33.55H43.62V32.62H44.32V33.55H45.81V34.2H44.32V35.42H46.02V36.07H44.32V38.03H43.62V36.07H41.44V35.42H43.62V34.2H42.44ZM41.52 30.07V29.43H45.69C45.69 30.7833 45.6 31.5967 45.42 31.87C45.2333 32.1367 44.93 32.27 44.51 32.27C44.3767 32.27 44.0967 32.2567 43.67 32.23L43.5 31.63L44.36 31.68C44.6333 31.6733 44.8067 31.5833 44.88 31.41C44.94 31.2433 44.98 30.7967 45 30.07H43.53C43.43 30.5233 43.2833 30.93 43.09 31.29C42.8233 31.7167 42.4367 32.1 41.93 32.44L41.51 31.89C41.9567 31.63 42.2933 31.3167 42.52 30.95C42.6733 30.69 42.7833 30.3967 42.85 30.07H41.52ZM38.13 33.68V34.87L38.12 34.99H39.04V33.68H38.13ZM38.09 35.6C38.0033 36.5867 37.7767 37.4133 37.41 38.08L36.92 37.63C37.3 36.8833 37.4967 35.94 37.51 34.8V31.73C37.4633 31.7767 37.43 31.8133 37.41 31.84L36.97 31.31C37.5633 30.6767 38.0567 29.8367 38.45 28.79L39.1 28.94L38.85 29.58H40.63V30.08C40.4233 30.5 40.2 30.8767 39.96 31.21H41.16V37.21C41.16 37.6833 40.9167 37.92 40.43 37.92H39.86L39.69 37.32C39.9433 37.3467 40.12 37.36 40.22 37.36C40.44 37.36 40.55 37.2367 40.55 36.99V35.6H39.62V37.86H39.04V35.6H38.09ZM39.23 31.21C39.41 30.95 39.6233 30.6033 39.87 30.17H38.57C38.41 30.4833 38.1967 30.83 37.93 31.21H39.23ZM40.55 34.99V33.68H39.62V34.99H40.55ZM40.55 33.08V31.83H39.62V33.08H40.55ZM39.04 31.83H38.13V33.08H39.04V31.83ZM50.08 30.33H52.09V28.84H52.8V30.33H55.08V33.27H55.97V33.95H53C53.64 35.3833 54.68 36.5367 56.12 37.41L55.64 37.96C54.1867 36.9733 53.1333 35.7233 52.48 34.21C51.9933 35.9367 50.9667 37.2067 49.4 38.02L48.95 37.43C50.45 36.71 51.41 35.55 51.83 33.95H49.67V33.27H51.98C52.0533 32.79 52.09 32.31 52.09 31.83V31.02H50.08V30.33ZM52.8 31.02V31.67C52.8 32.2367 52.76 32.77 52.68 33.27H54.38V31.02H52.8ZM47.64 29.17C48.3067 30.03 48.82 30.7933 49.18 31.46L48.59 31.87C48.2167 31.1767 47.7033 30.4 47.05 29.54L47.64 29.17ZM49.29 33.56C48.81 35.04 48.27 36.43 47.67 37.73L46.99 37.43C47.6367 36.0833 48.1933 34.71 48.66 33.31L49.29 33.56ZM57.15 30.31H61.46C61.2467 29.8367 61.0033 29.4133 60.73 29.04L61.41 28.79C61.6833 29.2033 61.9433 29.71 62.19 30.31H65.93V31H60.66L60.57 32.8H64.72C64.7 34.7667 64.6233 36.0367 64.49 36.61C64.29 37.4633 63.7967 37.9033 63.01 37.93C62.83 37.93 62.4467 37.9167 61.86 37.89L61.64 37.24C62.16 37.26 62.5933 37.27 62.94 37.27C63.4467 37.25 63.76 36.89 63.88 36.19C63.9333 35.8233 63.97 34.92 63.99 33.48H60.49C60.3633 34.2733 60.1167 35.0067 59.75 35.68C59.2633 36.54 58.58 37.3233 57.7 38.03L57.18 37.53C58.2467 36.6233 58.9533 35.79 59.3 35.03C59.6333 34.27 59.8267 33.41 59.88 32.45C59.9133 31.8167 59.9333 31.3333 59.94 31H57.15V30.31ZM71.47 30.62L70.96 31.29H75.49V31.87H73.81C73.45 32.3367 73.0667 32.72 72.66 33.02C73.5133 33.2333 74.42 33.5 75.38 33.82L74.96 34.37C74.0067 34.0233 73 33.71 71.94 33.43C70.88 33.9233 69.5067 34.18 67.82 34.2L67.43 33.61C68.95 33.61 70.15 33.47 71.03 33.19C70.37 33.0233 69.6767 32.87 68.95 32.73L69.33 32.29C69.49 32.1167 69.6133 31.9767 69.7 31.87H67.53V31.29H70.17C70.41 30.99 70.6267 30.7033 70.82 30.43L71.47 30.62ZM71.86 32.82C72.3667 32.5267 72.76 32.21 73.04 31.87H70.5C70.32 32.0767 70.1533 32.2633 70 32.43C70.6133 32.53 71.2333 32.66 71.86 32.82ZM75.53 29.62V31.03H74.84V30.22H68.16V31.04H67.47V29.62H71.18C71.0067 29.3267 70.86 29.1 70.74 28.94L71.44 28.82C71.6 29.0733 71.7467 29.34 71.88 29.62H75.53ZM67.22 34.78H71.15V34H71.89V34.78H75.79V35.42H72.54C73.26 36.1067 74.3867 36.6567 75.92 37.07L75.61 37.7C73.8767 37.1333 72.6367 36.3867 71.89 35.46V37.98H71.15V35.43C70.51 36.33 69.29 37.11 67.49 37.77L67.09 37.13C68.75 36.63 69.89 36.06 70.51 35.42H67.22V34.78Z" fill="white"/>
<rect x="0.2" y="0.2" width="106.6" height="47.6" rx="3.8" stroke="white" stroke-opacity="0.8" stroke-width="0.4"/>
</svg>
