<svg width="106" height="48" viewBox="0 0 106 48" fill="none" xmlns="http://www.w3.org/2000/svg">
<rect width="106" height="48" rx="4" fill="white" fill-opacity="0.4"/>
<path d="M12.77 11.72C13.67 11.72 14.38 11.9367 14.9 12.37C15.4 12.7767 15.7133 13.37 15.84 14.15H15.02C14.9133 13.6167 14.6733 13.2033 14.3 12.91C13.9133 12.6033 13.4033 12.45 12.77 12.45C11.9967 12.45 11.38 12.7233 10.92 13.27C10.4667 13.8033 10.24 14.5333 10.24 15.46C10.24 16.36 10.46 17.07 10.9 17.59C11.3733 18.1433 12.0733 18.42 13 18.42C13.36 18.42 13.7333 18.3667 14.12 18.26C14.4533 18.1667 14.7533 18.0333 15.02 17.86V16.04H12.78V15.33H15.83V18.25C15.5033 18.5167 15.0867 18.7333 14.58 18.9C14.06 19.06 13.5067 19.14 12.92 19.14C11.7867 19.14 10.91 18.78 10.29 18.06C9.71 17.3867 9.42 16.52 9.42 15.46C9.42 14.3933 9.70667 13.52 10.28 12.84C10.8867 12.0933 11.7167 11.72 12.77 11.72ZM17.2605 11.86H18.0705V19H17.2605V11.86ZM19.0235 11.86H24.8735V12.57H22.3535V19H21.5435V12.57H19.0235V11.86ZM27.7349 13.89H28.4149V16.07H30.5949V16.75H28.4149V18.94H27.7349V16.75H25.5449V16.07H27.7349V13.89ZM31.8196 11.86H34.3796C35.5129 11.86 36.3663 12.1867 36.9396 12.84C37.4729 13.4467 37.7396 14.31 37.7396 15.43C37.7396 16.53 37.4529 17.3933 36.8796 18.02C36.2796 18.6733 35.4196 19 34.2996 19H31.8196V11.86ZM32.6396 12.57V18.29H34.1596C35.0863 18.29 35.7863 18.0433 36.2596 17.55C36.7063 17.0633 36.9296 16.3567 36.9296 15.43C36.9296 14.4767 36.7229 13.7667 36.3096 13.3C35.8696 12.8133 35.1829 12.57 34.2496 12.57H32.6396ZM42.0002 11.72C43.0735 11.72 43.9168 12.0767 44.5302 12.79C45.1168 13.4767 45.4102 14.36 45.4102 15.44C45.4102 16.5067 45.1168 17.3833 44.5302 18.07C43.9102 18.7833 43.0635 19.14 41.9902 19.14C40.9235 19.14 40.0802 18.7833 39.4602 18.07C38.8735 17.3967 38.5802 16.52 38.5802 15.44C38.5802 14.3533 38.8735 13.4733 39.4602 12.8C40.0802 12.08 40.9268 11.72 42.0002 11.72ZM42.0002 12.45C41.1735 12.45 40.5268 12.7333 40.0602 13.3C39.6202 13.84 39.4002 14.5533 39.4002 15.44C39.4002 16.32 39.6202 17.03 40.0602 17.57C40.5202 18.13 41.1635 18.41 41.9902 18.41C42.8102 18.41 43.4535 18.1367 43.9202 17.59C44.3668 17.0433 44.5902 16.3267 44.5902 15.44C44.5902 14.54 44.3668 13.8167 43.9202 13.27C43.4602 12.7233 42.8202 12.45 42.0002 12.45ZM49.6262 11.72C50.4195 11.72 51.0862 11.93 51.6262 12.35C52.1662 12.77 52.4862 13.3367 52.5862 14.05H51.7962C51.6962 13.5367 51.4428 13.1367 51.0362 12.85C50.6495 12.5833 50.1762 12.45 49.6162 12.45C48.7895 12.45 48.1495 12.74 47.6962 13.32C47.2762 13.86 47.0662 14.5733 47.0662 15.46C47.0662 16.36 47.2728 17.0667 47.6862 17.58C48.1262 18.1333 48.7628 18.41 49.5962 18.41C50.1628 18.41 50.6462 18.26 51.0462 17.96C51.4728 17.6333 51.7562 17.1633 51.8962 16.55H52.6862C52.5262 17.39 52.1528 18.0367 51.5662 18.49C51.0128 18.9233 50.3562 19.14 49.5962 19.14C48.4895 19.14 47.6395 18.7733 47.0462 18.04C46.5128 17.3867 46.2462 16.5267 46.2462 15.46C46.2462 14.3933 46.5195 13.5233 47.0662 12.85C47.6595 12.0967 48.5128 11.72 49.6262 11.72ZM58.4816 11.86H59.5516L56.3216 14.92L60.0016 19H58.9016L55.7516 15.45L54.6416 16.5V19H53.8216V11.86H54.6416V15.57L58.4816 11.86ZM60.7259 11.86H65.7859V12.57H61.5459V14.96H65.5459V15.67H61.5459V18.29H65.9559V19H60.7259V11.86ZM67.093 11.86H70.173C70.8864 11.86 71.4464 12.0233 71.853 12.35C72.2797 12.6967 72.493 13.1967 72.493 13.85C72.493 14.2433 72.383 14.5967 72.163 14.91C71.9297 15.2233 71.6064 15.43 71.193 15.53V15.55C71.873 15.7033 72.253 16.1367 72.333 16.85L72.443 17.95C72.483 18.3833 72.6097 18.7333 72.823 19H71.933C71.7664 18.7533 71.6697 18.4367 71.643 18.05L71.553 17.1C71.513 16.6733 71.363 16.37 71.103 16.19C70.8697 16.0167 70.5264 15.93 70.073 15.93H67.913V19H67.093V11.86ZM67.913 12.57V15.22H70.073C70.593 15.22 70.9964 15.0967 71.283 14.85C71.5364 14.6167 71.663 14.2933 71.663 13.88C71.663 13.44 71.5397 13.1133 71.293 12.9C71.033 12.68 70.6264 12.57 70.073 12.57H67.913ZM11.69 31.89H12.37V34.07H14.55V34.75H12.37V36.94H11.69V34.75H9.5V34.07H11.69V31.89ZM15.6747 29.72H16.4747V34.23L19.0647 31.83H20.1247L17.8447 33.91L20.3447 37H19.3147L17.2947 34.43L16.4747 35.17V37H15.6747V29.72ZM20.9677 31.83H21.7677V34.99C21.7677 35.49 21.871 35.8567 22.0777 36.09C22.291 36.3367 22.631 36.46 23.0977 36.46C23.431 36.46 23.7377 36.3267 24.0177 36.06C24.2977 35.78 24.4677 35.42 24.5277 34.98V31.83H25.3277V37H24.5277V36.2C24.101 36.8267 23.541 37.14 22.8477 37.14C21.5943 37.14 20.9677 36.4367 20.9677 35.03V31.83ZM26.5634 29.72H27.3634V32.78C27.7634 32.0533 28.3334 31.69 29.0734 31.69C29.8134 31.69 30.39 31.9667 30.8034 32.52C31.19 33.0267 31.3834 33.6533 31.3834 34.4C31.3834 35.1733 31.19 35.8133 30.8034 36.32C30.37 36.8667 29.78 37.14 29.0334 37.14C28.24 37.14 27.6667 36.81 27.3134 36.15V37H26.5634V29.72ZM28.9034 32.35C28.4234 32.35 28.0467 32.5367 27.7734 32.91C27.48 33.27 27.3334 33.7567 27.3334 34.37V34.47C27.3334 35.05 27.4634 35.52 27.7234 35.88C28.0034 36.28 28.4067 36.48 28.9334 36.48C29.4867 36.48 29.9067 36.2767 30.1934 35.87C30.44 35.4967 30.5634 35.0067 30.5634 34.4C30.5634 33.78 30.4334 33.2967 30.1734 32.95C29.8867 32.55 29.4634 32.35 28.9034 32.35ZM34.5527 31.69C35.3861 31.69 36.0127 31.97 36.4327 32.53C36.8127 33.03 37.0127 33.7333 37.0327 34.64H32.9527C32.9927 35.2267 33.1494 35.6767 33.4227 35.99C33.7027 36.31 34.0894 36.47 34.5827 36.47C35.0027 36.47 35.3461 36.3633 35.6127 36.15C35.8261 35.9767 35.9994 35.7067 36.1327 35.34H36.9327C36.8127 35.8333 36.5794 36.24 36.2327 36.56C35.7927 36.9467 35.2427 37.14 34.5827 37.14C33.8427 37.14 33.2494 36.8967 32.8027 36.41C32.3494 35.9167 32.1227 35.25 32.1227 34.41C32.1227 33.6367 32.3394 33 32.7727 32.5C33.2127 31.96 33.8061 31.69 34.5527 31.69ZM34.5727 32.36C34.1127 32.36 33.7427 32.51 33.4627 32.81C33.1894 33.1033 33.0261 33.5067 32.9727 34.02H36.2027C36.1027 32.9133 35.5594 32.36 34.5727 32.36ZM40.2396 31.69C40.5263 31.69 40.7629 31.73 40.9496 31.81V32.61C40.7096 32.5367 40.4529 32.5 40.1796 32.5C39.7729 32.5 39.4363 32.6767 39.1696 33.03C38.8963 33.3633 38.7596 33.7733 38.7596 34.26V37H37.9696V31.83H38.7596V32.73C38.8996 32.4233 39.0796 32.1867 39.2996 32.02C39.5729 31.8 39.8863 31.69 40.2396 31.69ZM44.042 31.69C45.3286 31.69 45.972 32.4 45.972 33.82V37H45.172V33.88C45.172 32.8733 44.7186 32.37 43.812 32.37C43.452 32.37 43.142 32.5 42.882 32.76C42.6086 33.0333 42.4553 33.4067 42.422 33.88V37H41.622V31.83H42.422V32.59C42.602 32.2967 42.832 32.0767 43.112 31.93C43.392 31.77 43.702 31.69 44.042 31.69ZM49.3379 31.69C50.1712 31.69 50.7979 31.97 51.2179 32.53C51.5979 33.03 51.7979 33.7333 51.8179 34.64H47.7379C47.7779 35.2267 47.9346 35.6767 48.2079 35.99C48.4879 36.31 48.8746 36.47 49.3679 36.47C49.7879 36.47 50.1312 36.3633 50.3979 36.15C50.6112 35.9767 50.7846 35.7067 50.9179 35.34H51.7179C51.5979 35.8333 51.3646 36.24 51.0179 36.56C50.5779 36.9467 50.0279 37.14 49.3679 37.14C48.6279 37.14 48.0346 36.8967 47.5879 36.41C47.1346 35.9167 46.9079 35.25 46.9079 34.41C46.9079 33.6367 47.1246 33 47.5579 32.5C47.9979 31.96 48.5912 31.69 49.3379 31.69ZM49.3579 32.36C48.8979 32.36 48.5279 32.51 48.2479 32.81C47.9746 33.1033 47.8112 33.5067 47.7579 34.02H50.9879C50.8879 32.9133 50.3446 32.36 49.3579 32.36ZM54.1348 30.16V31.83H55.4148V32.5H54.1348V35.79C54.1348 35.99 54.1714 36.1267 54.2448 36.2C54.3181 36.2867 54.4448 36.33 54.6248 36.33H55.2848V37H54.5048C54.0781 37 53.7748 36.89 53.5948 36.67C53.4281 36.4767 53.3448 36.1833 53.3448 35.79V32.5H52.3048V31.83H53.3448V30.49L54.1348 30.16ZM58.4395 31.69C59.2728 31.69 59.8995 31.97 60.3195 32.53C60.6995 33.03 60.8995 33.7333 60.9195 34.64H56.8395C56.8795 35.2267 57.0361 35.6767 57.3095 35.99C57.5895 36.31 57.9761 36.47 58.4695 36.47C58.8895 36.47 59.2328 36.3633 59.4995 36.15C59.7128 35.9767 59.8861 35.7067 60.0195 35.34H60.8195C60.6995 35.8333 60.4661 36.24 60.1195 36.56C59.6795 36.9467 59.1295 37.14 58.4695 37.14C57.7295 37.14 57.1361 36.8967 56.6895 36.41C56.2361 35.9167 56.0095 35.25 56.0095 34.41C56.0095 33.6367 56.2261 33 56.6595 32.5C57.0995 31.96 57.6928 31.69 58.4395 31.69ZM58.4595 32.36C57.9995 32.36 57.6295 32.51 57.3495 32.81C57.0761 33.1033 56.9128 33.5067 56.8595 34.02H60.0895C59.9895 32.9133 59.4461 32.36 58.4595 32.36ZM63.6863 31.69C64.9597 31.69 65.6663 32.2267 65.8063 33.3H65.0263C64.953 32.9667 64.8197 32.7333 64.6263 32.6C64.4063 32.44 64.0897 32.36 63.6763 32.36C63.3097 32.36 63.0297 32.4267 62.8363 32.56C62.6163 32.6867 62.5063 32.8667 62.5063 33.1C62.5063 33.3267 62.653 33.5133 62.9463 33.66C63.113 33.74 63.4697 33.8533 64.0163 34C64.6297 34.1467 65.073 34.3067 65.3463 34.48C65.7597 34.74 65.9663 35.0933 65.9663 35.54C65.9663 36.6067 65.2363 37.14 63.7763 37.14C62.4163 37.14 61.6763 36.5433 61.5563 35.35H62.3363C62.3963 35.75 62.5397 36.0433 62.7663 36.23C62.9863 36.39 63.3163 36.47 63.7563 36.47C64.683 36.47 65.1463 36.1767 65.1463 35.59C65.1463 35.3033 64.983 35.08 64.6563 34.92C64.4897 34.84 64.123 34.73 63.5563 34.59C62.9363 34.4367 62.5097 34.2833 62.2763 34.13C61.883 33.8967 61.6863 33.56 61.6863 33.12C61.6863 32.6867 61.8797 32.34 62.2663 32.08C62.6263 31.82 63.0997 31.69 63.6863 31.69ZM67.0252 37.89L66.8752 37.21C67.1618 37.2433 67.4118 37.26 67.6252 37.26C67.8985 37.26 68.0352 37.11 68.0352 36.81V34.42C67.6018 34.5933 67.1952 34.7433 66.8152 34.87L66.6352 34.16C67.0685 34.0533 67.5352 33.9067 68.0352 33.72V31.36H66.8252V30.67H68.0352V28.84H68.7352V30.67H69.7952V31.36H68.7352V33.43C69.1818 33.21 69.5418 33.0233 69.8152 32.87V33.57C69.4952 33.75 69.1352 33.9333 68.7352 34.12V36.99C68.7352 37.59 68.4452 37.89 67.8652 37.89H67.0252ZM70.1552 30.28H72.5552V28.86H73.2552V30.28H75.6652V30.97H73.2552V32.6H75.2752V33.24C74.9285 34.34 74.3485 35.28 73.5352 36.06C74.1885 36.5667 74.9952 37.0167 75.9552 37.41L75.5752 38.01C74.5752 37.57 73.7318 37.0667 73.0452 36.5C72.2652 37.12 71.3152 37.63 70.1952 38.03L69.8552 37.43C70.9218 37.0767 71.8185 36.6167 72.5452 36.05C71.7118 35.2367 71.1552 34.3133 70.8752 33.28H70.3452V32.6H72.5552V30.97H70.1552V30.28ZM71.5452 33.28C71.7985 34.1467 72.2918 34.93 73.0252 35.63C73.7185 34.9567 74.2285 34.1733 74.5552 33.28H71.5452ZM77.0452 31.2H80.9252V28.81H81.6452V31.2H85.5352V31.89H82.3652C83.0252 33.5567 84.1785 35.0367 85.8252 36.33L85.3452 36.94C83.5918 35.44 82.3718 33.7567 81.6852 31.89H81.6452V37.98H80.9252V31.89H80.8852C80.1452 33.97 78.8818 35.6733 77.0952 37L76.7052 36.36C78.3318 35.2 79.4985 33.71 80.2052 31.89H77.0452V31.2ZM83.2552 28.83C83.8552 29.45 84.3152 29.99 84.6352 30.45L84.0652 30.86C83.7118 30.3267 83.2552 29.7667 82.6952 29.18L83.2552 28.83ZM86.8952 30.72H88.2752V28.86H88.9652V30.72H90.0852V31.39H88.9652V31.88C89.3652 32.3867 89.8085 33.02 90.2952 33.78L89.8752 34.42C89.5285 33.6667 89.2252 33.05 88.9652 32.57V37.98H88.2752V32.75C87.9418 33.71 87.4952 34.5967 86.9352 35.41L86.6252 34.63C87.3852 33.6767 87.9252 32.5967 88.2452 31.39H86.8952V30.72ZM95.0752 30.67L95.1852 31.34L92.6752 31.74C92.6885 32.2067 92.7185 32.6433 92.7652 33.05L95.4652 32.57L95.5752 33.23L92.8452 33.71C92.8652 33.8967 92.8952 34.0767 92.9352 34.25C93.0218 34.6767 93.1318 35.0733 93.2652 35.44C93.7585 34.9933 94.2085 34.4867 94.6152 33.92L95.1652 34.29C94.6652 34.99 94.1252 35.59 93.5452 36.09C93.6252 36.25 93.6918 36.3667 93.7452 36.44C94.0985 36.9267 94.4118 37.17 94.6852 37.17C94.9185 37.17 95.1152 36.6533 95.2752 35.62L95.8952 36.03C95.6352 37.27 95.2585 37.89 94.7652 37.89C94.2652 37.8767 93.7852 37.5767 93.3252 36.99C93.2452 36.8833 93.1385 36.7233 93.0052 36.51C92.2185 37.09 91.3685 37.51 90.4552 37.77L90.0352 37.19C91.0418 36.89 91.9318 36.4567 92.7052 35.89C92.5385 35.4967 92.3985 35.0667 92.2852 34.6C92.2252 34.3333 92.1752 34.08 92.1352 33.84L90.4952 34.13L90.3952 33.47L92.0452 33.18C91.9985 32.7933 91.9652 32.35 91.9452 31.85L90.4352 32.09L90.3352 31.42L91.9252 31.17V28.84H92.6552V31.05L95.0752 30.67ZM93.8452 28.88C94.3318 29.3467 94.7018 29.75 94.9552 30.09L94.3952 30.48C94.1352 30.1267 93.7652 29.71 93.2852 29.23L93.8452 28.88Z" fill="white"/>
<rect x="0.2" y="0.2" width="105.6" height="47.6" rx="3.8" stroke="white" stroke-opacity="0.8" stroke-width="0.4"/>
</svg>
