<svg width="104" height="48" viewBox="0 0 104 48" fill="none" xmlns="http://www.w3.org/2000/svg">
<rect width="104" height="48" rx="4" fill="white" fill-opacity="0.4"/>
<path d="M27.72 21.67H31.63V19.86H32.37V21.67H36.27V22.36H33.01C33.6767 23.9467 34.8733 25.3667 36.6 26.62L36.11 27.24C34.35 25.8 33.13 24.1733 32.45 22.36H32.37V26.26H34.51V26.95H32.37V29H31.63V26.95H29.57V26.26H31.63V22.36H31.56C30.82 24.3867 29.56 26.0567 27.78 27.37L27.37 26.7C29.0367 25.5867 30.2433 24.14 30.99 22.36H27.72V21.67ZM46.2 21.53C46.2 23.6633 46.15 24.96 46.05 25.42C45.9567 25.8667 45.5733 26.09 44.9 26.09H44.73L44.51 25.37L45.05 25.38C45.2567 25.38 45.3833 25.26 45.43 25.02C45.4767 24.76 45.5 23.91 45.5 22.47L44.11 22.88V26.85H43.42V23.08L42.15 23.46V27.64C42.15 27.9733 42.31 28.14 42.63 28.14H45.2C45.4133 28.14 45.5633 28.07 45.65 27.93C45.7633 27.77 45.84 27.2733 45.88 26.44L46.55 26.65C46.4767 27.69 46.3433 28.3167 46.15 28.53C45.97 28.7233 45.7 28.82 45.34 28.82H42.41C41.77 28.82 41.45 28.4733 41.45 27.78V23.67L40.73 23.88V23.17L41.45 22.95V20.85H42.15V22.74L43.42 22.36V19.83H44.11V22.15L46.2 21.53ZM40.75 26.71C39.7967 27.1367 38.74 27.5033 37.58 27.81L37.4 27.09C37.8067 27.0033 38.2433 26.8967 38.71 26.77V23.23H37.53V22.53H38.71V19.87H39.43V22.53H40.55V23.23H39.43V26.53C39.8833 26.37 40.3233 26.19 40.75 25.99V26.71ZM53.19 25.79H50.86V25.12H56.2V25.79H53.91V27.96H56.57V28.66H50.46V27.96H53.19V25.79ZM47.75 28.91L47.6 28.21C47.96 28.2367 48.22 28.25 48.38 28.25C48.64 28.25 48.77 28.1067 48.77 27.82V25.4C48.37 25.5467 47.97 25.6867 47.57 25.82L47.39 25.1C47.8633 24.98 48.3233 24.84 48.77 24.68V22.44H47.55V21.75H48.77V19.84H49.51V21.75H50.34V22.44H49.51V24.38C49.8567 24.22 50.1467 24.0767 50.38 23.95V24.68C49.9933 24.8667 49.7033 25.0033 49.51 25.09V28C49.51 28.6067 49.2167 28.91 48.63 28.91H47.75ZM53.46 19.72C53.6467 20.12 53.8133 20.5233 53.96 20.93H56.31V22.82H55.64V21.58H51.44V22.82H50.76V20.93H53.24C53.0733 20.51 52.9033 20.1467 52.73 19.84L53.46 19.72ZM53.16 22.45C52.6933 23.45 52.09 24.2067 51.35 24.72L50.83 24.27C51.5833 23.75 52.15 23.06 52.53 22.2L53.16 22.45ZM54.46 22.18C55.0667 22.8067 55.6167 23.52 56.11 24.32L55.48 24.64C54.9733 23.7933 54.43 23.06 53.85 22.44L54.46 22.18ZM58.56 21.77C58.38 22.17 58.17 22.5 57.93 22.76L57.35 22.34C57.85 21.8 58.17 21.0567 58.31 20.11L58.99 20.22C58.9367 20.56 58.8733 20.8533 58.8 21.1H59.96V19.86H60.68V21.1H62.55V21.77H60.68V23.06H62.84V23.73H60.68V24.78H62.63V27.42C62.63 28.0133 62.33 28.31 61.73 28.31H61.2L61.02 27.63L61.51 27.66C61.7967 27.66 61.94 27.53 61.94 27.27V25.45H60.68V29.01H59.96V25.45H58.69V28.38H57.99V24.78H59.96V23.73H57.54V23.06H59.96V21.77H58.56ZM63.43 20.76H64.13V26.94H63.43V20.76ZM63.79 28.91L63.63 28.22C64.1633 28.2533 64.6233 28.27 65.01 28.27C65.3167 28.27 65.47 28.11 65.47 27.79V19.86H66.18V27.97C66.18 28.5967 65.8733 28.91 65.26 28.91H63.79ZM75.34 24.84V29.01H74.61V28.51H69.39V29.01H68.66V24.84H75.34ZM69.39 27.82H74.61V25.53H69.39V27.82ZM67.81 23.13C68.69 22.83 69.78 21.7233 71.08 19.81L71.82 20.06C70.92 21.34 70.0167 22.3533 69.11 23.1C70.9033 23.0267 72.7233 22.9033 74.57 22.73C74.1633 22.1567 73.7733 21.6533 73.4 21.22L74.05 20.91C74.9033 21.9033 75.7033 23.01 76.45 24.23L75.75 24.57C75.6233 24.3567 75.3767 23.96 75.01 23.38C72.9633 23.5667 70.61 23.71 67.95 23.81L67.81 23.13Z" fill="white"/>
<rect x="0.2" y="0.2" width="103.6" height="47.6" rx="3.8" stroke="white" stroke-opacity="0.8" stroke-width="0.4"/>
</svg>
