<svg width="107" height="48" viewBox="0 0 107 48" fill="none" xmlns="http://www.w3.org/2000/svg">
<rect width="107" height="48" rx="4" fill="white" fill-opacity="0.4"/>
<path d="M9.3 11.72C10.0933 11.72 10.76 11.93 11.3 12.35C11.84 12.77 12.16 13.3367 12.26 14.05H11.47C11.37 13.5367 11.1167 13.1367 10.71 12.85C10.3233 12.5833 9.85 12.45 9.29 12.45C8.46333 12.45 7.82333 12.74 7.37 13.32C6.95 13.86 6.74 14.5733 6.74 15.46C6.74 16.36 6.94667 17.0667 7.36 17.58C7.8 18.1333 8.43667 18.41 9.27 18.41C9.83667 18.41 10.32 18.26 10.72 17.96C11.1467 17.6333 11.43 17.1633 11.57 16.55H12.36C12.2 17.39 11.8267 18.0367 11.24 18.49C10.6867 18.9233 10.03 19.14 9.27 19.14C8.16333 19.14 7.31333 18.7733 6.72 18.04C6.18667 17.3867 5.92 16.5267 5.92 15.46C5.92 14.3933 6.19333 13.5233 6.74 12.85C7.33333 12.0967 8.18667 11.72 9.3 11.72ZM13.5554 11.86H14.3654V19H13.5554V11.86ZM19.0684 10.8H19.7784L16.2384 20H15.5184L19.0684 10.8ZM23.9484 11.72C24.7418 11.72 25.4084 11.93 25.9484 12.35C26.4884 12.77 26.8084 13.3367 26.9084 14.05H26.1184C26.0184 13.5367 25.7651 13.1367 25.3584 12.85C24.9718 12.5833 24.4984 12.45 23.9384 12.45C23.1118 12.45 22.4718 12.74 22.0184 13.32C21.5984 13.86 21.3884 14.5733 21.3884 15.46C21.3884 16.36 21.5951 17.0667 22.0084 17.58C22.4484 18.1333 23.0851 18.41 23.9184 18.41C24.4851 18.41 24.9684 18.26 25.3684 17.96C25.7951 17.6333 26.0784 17.1633 26.2184 16.55H27.0084C26.8484 17.39 26.4751 18.0367 25.8884 18.49C25.3351 18.9233 24.6784 19.14 23.9184 19.14C22.8118 19.14 21.9618 18.7733 21.3684 18.04C20.8351 17.3867 20.5684 16.5267 20.5684 15.46C20.5684 14.3933 20.8418 13.5233 21.3884 12.85C21.9818 12.0967 22.8351 11.72 23.9484 11.72ZM28.1438 11.86H30.7038C31.8372 11.86 32.6905 12.1867 33.2638 12.84C33.7972 13.4467 34.0638 14.31 34.0638 15.43C34.0638 16.53 33.7772 17.3933 33.2038 18.02C32.6038 18.6733 31.7438 19 30.6238 19H28.1438V11.86ZM28.9638 12.57V18.29H30.4838C31.4105 18.29 32.1105 18.0433 32.5838 17.55C33.0305 17.0633 33.2538 16.3567 33.2538 15.43C33.2538 14.4767 33.0472 13.7667 32.6338 13.3C32.1938 12.8133 31.5072 12.57 30.5738 12.57H28.9638ZM41.8645 12.67H45.7745V10.86H46.5145V12.67H50.4145V13.36H47.1545C47.8212 14.9467 49.0179 16.3667 50.7445 17.62L50.2545 18.24C48.4945 16.8 47.2745 15.1733 46.5945 13.36H46.5145V17.26H48.6545V17.95H46.5145V20H45.7745V17.95H43.7145V17.26H45.7745V13.36H45.7045C44.9645 15.3867 43.7045 17.0567 41.9245 18.37L41.5145 17.7C43.1812 16.5867 44.3879 15.14 45.1345 13.36H41.8645V12.67ZM60.3445 12.53C60.3445 14.6633 60.2945 15.96 60.1945 16.42C60.1012 16.8667 59.7179 17.09 59.0445 17.09H58.8745L58.6545 16.37L59.1945 16.38C59.4012 16.38 59.5279 16.26 59.5745 16.02C59.6212 15.76 59.6445 14.91 59.6445 13.47L58.2545 13.88V17.85H57.5645V14.08L56.2945 14.46V18.64C56.2945 18.9733 56.4545 19.14 56.7745 19.14H59.3445C59.5579 19.14 59.7079 19.07 59.7945 18.93C59.9079 18.77 59.9845 18.2733 60.0245 17.44L60.6945 17.65C60.6212 18.69 60.4879 19.3167 60.2945 19.53C60.1145 19.7233 59.8445 19.82 59.4845 19.82H56.5545C55.9145 19.82 55.5945 19.4733 55.5945 18.78V14.67L54.8745 14.88V14.17L55.5945 13.95V11.85H56.2945V13.74L57.5645 13.36V10.83H58.2545V13.15L60.3445 12.53ZM54.8945 17.71C53.9412 18.1367 52.8845 18.5033 51.7245 18.81L51.5445 18.09C51.9512 18.0033 52.3879 17.8967 52.8545 17.77V14.23H51.6745V13.53H52.8545V10.87H53.5745V13.53H54.6945V14.23H53.5745V17.53C54.0279 17.37 54.4679 17.19 54.8945 16.99V17.71ZM66.1145 14.93C65.7079 16.0633 64.9245 17.01 63.7645 17.77L63.2845 17.18C64.4045 16.44 65.1445 15.5167 65.5045 14.41C65.6179 14.0167 65.7079 13.5933 65.7745 13.14H62.9245V19.99H62.1945V12.44H65.8545C65.9079 11.8933 65.9345 11.3467 65.9345 10.8H66.6645C66.6645 11.3067 66.6412 11.8533 66.5945 12.44H70.1045V18.88C70.1045 19.5533 69.7812 19.89 69.1345 19.89H67.5645L67.3645 19.17L68.8945 19.21C69.2145 19.21 69.3745 19.0467 69.3745 18.72V13.14H66.5145C66.4612 13.56 66.3979 13.9167 66.3245 14.21C67.3445 15.17 68.2179 16.1367 68.9445 17.11L68.4045 17.66C67.8379 16.82 67.0745 15.91 66.1145 14.93ZM76.2645 10.78C76.3712 11.0067 76.4845 11.3033 76.6045 11.67H80.2345V13.45H79.5345V12.34H72.7545V13.5H72.0545V11.67H75.8545C75.7412 11.41 75.6212 11.1567 75.4945 10.91L76.2645 10.78ZM76.4345 13.98C77.2412 14.9867 78.6379 15.87 80.6245 16.63L80.2345 17.22C79.8345 17.06 79.4645 16.9 79.1245 16.74V20.01H78.4345V19.59H73.9645V20.01H73.2645V16.7C72.9045 16.8733 72.4912 17.05 72.0245 17.23L71.6445 16.64C73.4779 15.96 74.8912 15.0733 75.8845 13.98H76.4345ZM73.9645 18.93H78.4345V17.33H73.9645V18.93ZM79.0145 16.69C77.7945 16.09 76.8412 15.3967 76.1545 14.61C75.3612 15.4433 74.4045 16.1367 73.2845 16.69H79.0145ZM77.3145 12.76C78.5345 13.3933 79.5479 14.0133 80.3545 14.62L79.8545 15.11C79.1345 14.5167 78.1345 13.8833 76.8545 13.21L77.3145 12.76ZM75.4245 13.18C74.5712 13.92 73.5279 14.57 72.2945 15.13L71.8645 14.57C73.0845 14.05 74.1112 13.4433 74.9445 12.75L75.4245 13.18ZM85.3845 11.39C84.9179 12.25 84.4479 12.9433 83.9745 13.47C83.4879 14.0233 82.8212 14.5967 81.9745 15.19L81.5845 14.56C82.2845 14.1467 82.9012 13.63 83.4345 13.01C83.9345 12.4433 84.3812 11.7833 84.7745 11.03L85.3845 11.39ZM83.0245 15.49V14.8H89.0945C89.0679 16.0133 89.0012 17.0267 88.8945 17.84C88.7945 18.62 88.6279 19.1533 88.3945 19.44C88.1612 19.7333 87.7879 19.8933 87.2745 19.92H85.4145L85.2245 19.23C85.8245 19.25 86.3912 19.26 86.9245 19.26C87.4779 19.26 87.8445 19.0267 88.0245 18.56C88.1912 18.0933 88.3045 17.07 88.3645 15.49H85.6945C85.4545 16.5967 85.1245 17.47 84.7045 18.11C84.2179 18.81 83.4779 19.44 82.4845 20L82.0445 19.43C82.9379 18.93 83.6079 18.39 84.0545 17.81C84.4612 17.2433 84.7679 16.47 84.9745 15.49H83.0245ZM87.6445 10.91C88.2112 12.43 89.2279 13.6333 90.6945 14.52L90.2145 15.09C88.6879 14.0967 87.6245 12.8167 87.0245 11.25L87.6445 10.91ZM92.3045 13.9L93.0945 11.12L93.8045 11.24L93.2345 13.21H94.9845C95.1845 12.4233 95.3445 11.6067 95.4645 10.76L96.1945 10.85C96.0745 11.6367 95.9179 12.4233 95.7245 13.21H100.405V13.9H95.5345C95.3945 14.3733 95.2679 14.7533 95.1545 15.04H99.2445V15.66C98.9712 16.5267 98.4279 17.3067 97.6145 18C98.4212 18.48 99.4079 18.92 100.575 19.32L100.205 19.99C98.9245 19.5167 97.8645 19.0067 97.0245 18.46C96.2179 19.0267 95.2012 19.55 93.9745 20.03L93.5945 19.36C94.7079 18.9533 95.6412 18.5033 96.3945 18.01C95.6212 17.4167 95.0679 16.7667 94.7345 16.06C94.0079 17.6333 93.0712 18.8867 91.9245 19.82L91.5545 19.16C93.0079 17.8867 94.0845 16.1333 94.7845 13.9H92.3045ZM95.2745 15.7C95.6145 16.38 96.1845 17.01 96.9845 17.59C97.7245 17.01 98.2345 16.38 98.5145 15.7H95.2745ZM97.8745 10.84C98.5745 11.3733 99.1712 11.9233 99.6645 12.49L99.1545 13C98.7479 12.4867 98.1612 11.9233 97.3945 11.31L97.8745 10.84ZM11.1 29.14C10.92 29.34 10.73 29.53 10.53 29.71H13.4V30.28C12.32 32.2 10.3167 33.2767 7.39 33.51L7.08 32.86C7.98667 32.8 8.79333 32.6667 9.5 32.46C9.18667 32.08 8.86 31.7333 8.52 31.42L9.15 31.12C9.53 31.48 9.87 31.8467 10.17 32.22C11.21 31.8 12.0133 31.1767 12.58 30.35H9.66C8.88 30.81 7.95667 31.16 6.89 31.4L6.47 30.74C8.25667 30.4 9.58667 29.7533 10.46 28.8L11.1 29.14ZM10.08 35.05C10.4867 35.47 10.85 35.89 11.17 36.31C12.27 35.8367 13.1433 35.1533 13.79 34.26H10.83C9.93667 34.6867 8.89333 35.0033 7.7 35.21L7.27 34.57C9.44333 34.35 11.0533 33.6867 12.1 32.58L12.72 32.92C12.4467 33.1933 12.19 33.42 11.95 33.6H14.69V34.17C13.27 36.53 10.6233 37.7533 6.75 37.84L6.46 37.15C8.03333 37.1367 9.38 36.9433 10.5 36.57C10.14 36.0967 9.78667 35.69 9.44 35.35L10.08 35.05ZM19.43 32.66H16.59V31.97H24.04C23.9867 33.6433 23.9467 34.64 23.92 34.96C23.88 35.5067 23.7733 35.87 23.6 36.05C23.42 36.25 23.1 36.35 22.64 36.35C22.2133 36.35 21.86 36.3567 21.58 36.37L21.38 35.65L22.47 35.66C22.73 35.66 22.92 35.5933 23.04 35.46C23.1667 35.3133 23.2433 34.9833 23.27 34.47C23.29 33.9833 23.3067 33.38 23.32 32.66H20.16V37.97H19.43V32.66ZM16.15 29.81H18.46V28.84H19.19V29.81H21.81V28.84H22.54V29.81H24.85V30.51H22.54V31.46H21.81V30.51H19.19V31.45H18.46V30.51H16.15V29.81ZM29.98 28.85H30.69V29.82H34.57V30.5H30.69V31.77H33.88V34.98H27.26V31.77H29.98V28.85ZM33.16 34.31V32.45H27.98V34.31H33.16ZM27.85 35.71C27.4633 36.59 27.0267 37.3433 26.54 37.97L25.95 37.54C26.45 36.9533 26.88 36.2467 27.24 35.42L27.85 35.71ZM29.42 35.71C29.62 36.3633 29.8 37.08 29.96 37.86L29.24 38.02C29.1 37.18 28.9367 36.4567 28.75 35.85L29.42 35.71ZM31.51 35.61C31.8033 36.2767 32.0633 37.02 32.29 37.84L31.58 38C31.38 37.1467 31.13 36.3967 30.83 35.75L31.51 35.61ZM33.56 35.41C34.1733 36.2167 34.66 36.9467 35.02 37.6L34.42 38.02C34.08 37.36 33.6 36.6133 32.98 35.78L33.56 35.41ZM36.97 32.07L36.8 33.69H38.93C38.93 35.3433 38.8767 36.4467 38.77 37C38.6433 37.5733 38.1333 37.88 37.24 37.92C37.0867 37.92 36.85 37.9067 36.53 37.88L36.35 37.21C36.67 37.2367 36.9133 37.25 37.08 37.25C37.6667 37.25 38.0067 37.0667 38.1 36.7C38.2 36.32 38.25 35.5267 38.25 34.32H36.07L36.33 31.44H38.15V29.88H36.18V29.25H38.85V32.07H36.97ZM39.71 30.45H42.61C42.9167 29.9167 43.1767 29.3533 43.39 28.76L44.08 29C43.8667 29.5333 43.6133 30.0167 43.32 30.45H44.63V34.46H42.5V35.43H45.07V36.1H42.5V38.02H41.8V36.1H39.27V35.43H41.8V34.46H39.71V30.45ZM43.98 33.85V32.77H42.5V33.85H43.98ZM41.8 33.85V32.77H40.35V33.85H41.8ZM40.35 32.17H41.8V31.06H40.35V32.17ZM42.5 31.06V32.17H43.98V31.06H42.5ZM40.89 28.82C41.1833 29.2267 41.4433 29.6633 41.67 30.13L41.05 30.4C40.83 29.92 40.5567 29.4633 40.23 29.03L40.89 28.82ZM46.81 30.8C46.79 31.7733 46.6767 32.7267 46.47 33.66L45.88 33.49C46.0933 32.63 46.2133 31.72 46.24 30.76L46.81 30.8ZM48.75 30.55C48.9633 31.0233 49.1567 31.5867 49.33 32.24C49.6767 31.36 49.8733 30.43 49.92 29.45L50.57 29.54C50.55 29.96 50.51 30.36 50.45 30.74H51.88V28.87H52.62V30.74H54.8V31.44H52.62V33.85H54.65V34.56H52.62V37H55.06V37.7H49.02V37H51.88V34.56H49.59V33.85H51.88V31.44H50.32C50.14 32.1733 49.8767 32.8467 49.53 33.46L48.99 32.98C49.1033 32.76 49.2033 32.55 49.29 32.35L48.79 32.48C48.6367 31.86 48.4467 31.2733 48.22 30.72L48.75 30.55ZM47.32 28.86H48.05V37.96H47.32V28.86ZM61.49 29.32H64.69V29.84C64.3967 30.8733 64.0767 31.85 63.73 32.77C64.45 33.7633 64.8133 34.58 64.82 35.22C64.82 35.76 64.6967 36.1433 64.45 36.37C64.1833 36.5967 63.6567 36.71 62.87 36.71L62.66 35.99C63.0067 36.0167 63.2267 36.03 63.32 36.03C63.68 36.01 63.91 35.95 64.01 35.85C64.1033 35.73 64.1533 35.52 64.16 35.22C64.1467 34.5933 63.7633 33.7767 63.01 32.77C63.3367 31.9567 63.6533 31.02 63.96 29.96H62.18V38.01H61.49V29.32ZM56.2 29.8H58.23C58.1233 29.44 58.02 29.1367 57.92 28.89L58.65 28.77C58.7433 29.0433 58.8433 29.3867 58.95 29.8H60.94V30.48H56.2V29.8ZM56.01 32.54H57.36C57.1933 32.0467 56.9867 31.5667 56.74 31.1L57.39 30.86C57.6167 31.2867 57.8333 31.8467 58.04 32.54H59.12C59.4 31.9867 59.64 31.4033 59.84 30.79L60.51 31.02C60.3033 31.58 60.0767 32.0867 59.83 32.54H60.99V33.24H56.01V32.54ZM60.53 34.14V37.82H59.84V37.29H57.26V37.84H56.56V34.14H60.53ZM57.26 36.62H59.84V34.8H57.26V36.62ZM66.94 29.2H74.02V31.1H70.53V31.75H72.66V32.33H70.53V33.05H71.81C72.5967 32.5633 73.2733 32.0033 73.84 31.37L74.43 31.68C73.9567 32.18 73.42 32.6367 72.82 33.05H74.93V33.67H71.79C71.2767 33.9367 70.73 34.18 70.15 34.4H73.67V38.07H72.96V37.62H68.71V38.07H68V35.05C67.64 35.1367 67.1233 35.2433 66.45 35.37L66.06 34.77C67.7867 34.59 69.3 34.2233 70.6 33.67H66.12V33.05H69.83V32.33H67.21V31.75H69.83V31.1H66.94V29.2ZM73.33 30.57V29.74H71.86V30.57H73.33ZM71.21 30.57V29.74H69.77V30.57H71.21ZM69.12 30.57V29.74H67.63V30.57H69.12ZM68.71 36.28V37.03H72.96V36.28H68.71ZM72.96 35.73V34.96H68.71V35.73H72.96Z" fill="white"/>
<rect x="0.2" y="0.2" width="106.6" height="47.6" rx="3.8" stroke="white" stroke-opacity="0.8" stroke-width="0.4"/>
</svg>
