<svg width="16" height="16" viewBox="0 0 16 16" fill="none" xmlns="http://www.w3.org/2000/svg">
<path d="M15.3567 0H14.9728C14.7408 0 14.5088 0.00841781 14.2768 0.0252555C11.6853 0.177783 9.17616 0.990747 6.98912 2.38651C4.80207 3.78228 3.01012 5.71424 1.78438 7.9979C1.56924 8.4006 1.37169 8.81452 1.19171 9.23967C0.400642 11.1039 -0.00469455 13.1084 4.102e-05 15.1329C4.102e-05 15.4233 4.07964e-05 15.7117 0.0253505 16H1.76328C1.74641 15.7138 1.73587 15.4233 1.73587 15.1329C1.73389 13.2737 2.12185 11.4348 2.8748 9.73428C3.34842 10.3858 3.87314 10.9988 4.44401 11.5675C7.06706 14.1931 10.5677 15.7621 14.2768 15.9747L14.5405 15.9874H15.7891L16 15.9769V0.0210484C15.7933 0.0105248 15.5761 0 15.3567 0ZM14.2768 14.2384C12.161 14.097 10.1088 13.4579 8.28797 12.3732C6.46716 11.2886 4.92949 9.78928 3.80072 7.9979C4.92949 6.20651 6.46716 4.70719 8.28797 3.62256C10.1088 2.53793 12.161 1.8988 14.2768 1.75743V14.2384Z" fill="white"/>
</svg>
