<svg width="94" height="20" viewBox="0 0 94 20" fill="none" xmlns="http://www.w3.org/2000/svg">
<path d="M15.3567 2H14.9728C14.7408 2 14.5088 2.00842 14.2768 2.02526C11.6853 2.17778 9.17616 2.99075 6.98912 4.38651C4.80207 5.78228 3.01012 7.71424 1.78438 9.9979C1.56924 10.4006 1.37169 10.8145 1.19171 11.2397C0.400642 13.1039 -0.00469455 15.1084 4.102e-05 17.1329C4.102e-05 17.4233 4.07964e-05 17.7117 0.0253505 18H1.76328C1.74641 17.7138 1.73587 17.4233 1.73587 17.1329C1.73389 15.2737 2.12185 13.4348 2.8748 11.7343C3.34842 12.3858 3.87314 12.9988 4.44401 13.5675C7.06706 16.1931 10.5677 17.7621 14.2768 17.9747L14.5405 17.9874H15.7891L16 17.9769V2.02105C15.7933 2.01052 15.5761 2 15.3567 2ZM14.2768 16.2384C12.161 16.097 10.1088 15.4579 8.28797 14.3732C6.46716 13.2886 4.92949 11.7893 3.80072 9.9979C4.92949 8.20651 6.46716 6.70719 8.28797 5.62256C10.1088 4.53793 12.161 3.8988 14.2768 3.75743V16.2384Z" fill="white"/>
<path d="M33.044 12.774C32.316 14.4073 31 15.63 29.096 16.442L28.48 15.63C30.2627 14.958 31.476 13.9127 32.12 12.494H29.012V11.584H32.456C32.624 10.968 32.708 10.3147 32.708 9.624V9.582H30.566C30.1647 10.17 29.7307 10.6553 29.264 11.038L28.508 10.394C29.4507 9.64733 30.1693 8.63933 30.664 7.37L31.532 7.72C31.4387 7.93467 31.294 8.252 31.098 8.672H36.642V9.582H33.688C33.6787 10.282 33.5993 10.9493 33.45 11.584H37.216V12.494H33.842C34.6073 13.8007 35.8067 14.8553 37.44 15.658L36.768 16.442C35.0507 15.4527 33.8093 14.23 33.044 12.774ZM34.808 4.08C35.788 5.27467 36.5487 6.33867 37.09 7.272L36.306 7.832C36.1567 7.56133 35.9373 7.202 35.648 6.754C34.0147 7.01533 31.9567 7.216 29.474 7.356L29.194 6.516C29.3807 6.46 29.53 6.376 29.642 6.264C30.5287 5.424 31.252 4.46733 31.812 3.394L32.806 3.688C32.162 4.87333 31.4573 5.79733 30.692 6.46C32.1293 6.376 33.604 6.21733 35.116 5.984C34.8173 5.564 34.458 5.088 34.038 4.556L34.808 4.08ZM24.784 7.16H26.296V3.632H27.304V7.16H28.802V8.14H27.304V13.04C27.752 12.8813 28.2233 12.69 28.718 12.466V13.446C27.5513 13.9407 26.2727 14.3653 24.882 14.72L24.644 13.768C25.1293 13.6747 25.68 13.5393 26.296 13.362V8.14H24.784V7.16ZM50.334 5.69V16.26H49.34V15.616H44.272V16.302H43.264V5.69H45.602C45.882 4.95267 46.092 4.20133 46.232 3.436L47.24 3.576C47.1093 4.28533 46.8947 4.99 46.596 5.69H50.334ZM44.272 14.636H49.34V11.024H44.272V14.636ZM44.272 10.1H49.34V6.656H44.272V10.1ZM39.666 3.814C40.674 4.542 41.5233 5.26533 42.214 5.984L41.486 6.698C40.87 6.01667 40.0253 5.284 38.952 4.5L39.666 3.814ZM39.414 7.244C40.366 7.95333 41.1547 8.64867 41.78 9.33L41.066 10.058C40.506 9.40467 39.7173 8.69533 38.7 7.93L39.414 7.244ZM41.906 11.332C41.262 13.1987 40.5853 14.8833 39.876 16.386L38.868 15.952C39.6987 14.2813 40.408 12.6247 40.996 10.982L41.906 11.332ZM54.59 4.094H63.354V10.562H54.59V4.094ZM62.36 9.596V7.776H59.434V9.596H62.36ZM58.482 9.596V7.776H55.584V9.596H58.482ZM55.584 6.88H58.482V5.046H55.584V6.88ZM59.434 5.046V6.88H62.36V5.046H59.434ZM55.164 11.934C54.7627 13.4833 54.1887 14.8367 53.442 15.994L52.574 15.448C53.3207 14.3187 53.862 13.082 54.198 11.738L55.164 11.934ZM59.21 11.052C59.742 11.7893 60.218 12.606 60.638 13.502L59.714 13.908C59.2847 12.9653 58.8133 12.1113 58.3 11.346L59.21 11.052ZM63.298 11.402C64.1007 12.578 64.782 13.8007 65.342 15.07L64.432 15.49C63.8067 14.0807 63.1113 12.8207 62.346 11.71L63.298 11.402ZM57.446 16.218C56.494 16.218 56.018 15.7233 56.018 14.734V11.71H57.012V14.51C57.012 15.014 57.264 15.266 57.768 15.266H60.862C61.17 15.266 61.3847 15.182 61.506 15.014C61.6647 14.8087 61.772 14.244 61.828 13.32L62.794 13.642C62.71 14.8647 62.5187 15.6113 62.22 15.882C61.968 16.106 61.576 16.218 61.044 16.218H57.446ZM79.3 11.15L79.454 12.13L78.04 12.354V16.358H77.018V12.522L72.65 13.236L72.51 12.256L77.018 11.528V3.618H78.04V11.36L79.3 11.15ZM73.84 4.346C74.848 5.05533 75.6927 5.774 76.374 6.502L75.688 7.202C75.0627 6.502 74.2087 5.77867 73.126 5.032L73.84 4.346ZM73.42 7.566C74.484 8.35 75.3473 9.10133 76.01 9.82L75.296 10.534C74.6893 9.84333 73.826 9.08267 72.706 8.252L73.42 7.566ZM66.882 7.342H69.178V5.27C68.4873 5.37267 67.792 5.45667 67.092 5.522L66.896 4.57C68.688 4.43 70.3027 4.14533 71.74 3.716L72.09 4.668C71.53 4.82667 70.8953 4.97133 70.186 5.102V7.342H72.118V8.308H70.186V8.994C70.998 9.64733 71.8007 10.3567 72.594 11.122L72.02 11.976C71.2453 11.0707 70.634 10.3987 70.186 9.96V16.358H69.178V9.82C68.6087 11.2107 67.8573 12.4567 66.924 13.558L66.49 12.438C67.666 11.2433 68.5247 9.86667 69.066 8.308H66.882V7.342ZM81.036 16.246L80.826 15.294C81.2273 15.3407 81.5773 15.364 81.876 15.364C82.2587 15.364 82.45 15.154 82.45 14.734V11.388C81.8433 11.6307 81.274 11.8407 80.742 12.018L80.49 11.024C81.0967 10.8747 81.75 10.6693 82.45 10.408V7.104H80.756V6.138H82.45V3.576H83.43V6.138H84.914V7.104H83.43V10.002C84.0553 9.694 84.5593 9.43267 84.942 9.218V10.198C84.494 10.45 83.99 10.7067 83.43 10.968V14.986C83.43 15.826 83.024 16.246 82.212 16.246H81.036ZM85.418 5.592H88.778V3.604H89.758V5.592H93.132V6.558H89.758V8.84H92.586V9.736C92.1007 11.276 91.2887 12.592 90.15 13.684C91.0647 14.3933 92.194 15.0233 93.538 15.574L93.006 16.414C91.606 15.798 90.4253 15.0933 89.464 14.3C88.372 15.168 87.042 15.882 85.474 16.442L84.998 15.602C86.4913 15.1073 87.7467 14.4633 88.764 13.67C87.5973 12.5313 86.818 11.2387 86.426 9.792H85.684V8.84H88.778V6.558H85.418V5.592ZM87.364 9.792C87.7187 11.0053 88.4093 12.102 89.436 13.082C90.4067 12.1393 91.1207 11.0427 91.578 9.792H87.364Z" fill="white"/>
</svg>
